<?xml version="1.0" encoding="utf-8"?>
<!-- Generator: Adobe Illustrator 27.8.1, SVG Export Plug-In . SVG Version: 6.00 Build 0)  -->
<svg version="1.1" id="Calque_1" xmlns="http://www.w3.org/2000/svg" xmlns:xlink="http://www.w3.org/1999/xlink" x="0px" y="0px"
	 viewBox="0 0 600 213.86" style="enable-background:new 0 0 600 213.86;" xml:space="preserve">
<style type="text/css">
	.st0{fill:#FFFFFF;}
</style>
<g>
	<g>
		<path class="st0" d="M226.76,106.2c1.23,1.53,2.86,2.76,4.89,3.67c2.03,0.91,4.39,1.37,7.08,1.37c2.62,0,4.95-0.42,7-1.25
			s3.76-1.96,5.15-3.38c1.38-1.42,2.39-3.03,3.02-4.83s0.83-3.66,0.63-5.58c-0.21-1.91-0.87-3.78-1.99-5.6s-2.74-3.45-4.86-4.89
			l-10.58-7.39c-0.72-0.49-1.36-1-1.91-1.53s-0.97-1.1-1.25-1.71s-0.41-1.25-0.37-1.94c0.04-1.71,0.72-3.12,2.05-4.24
			c1.33-1.12,3.05-1.68,5.18-1.68c2.2,0,4.01,0.56,5.43,1.68s2.15,2.66,2.19,4.64h0.57l0.4-7.22c-0.01,0-0.02-0.01-0.03-0.01
			l0.03-0.67h-3.09c-0.45-0.07-0.93-0.13-1.44-0.2c-1-0.13-1.99-0.23-2.96-0.28c-0.97-0.06-1.79-0.09-2.47-0.09
			c-2.31,0-4.29,0.45-5.94,1.34c-1.65,0.89-2.92,2.08-3.81,3.56c-0.89,1.48-1.39,3.11-1.51,4.89c-0.11,1.67,0.21,3.31,0.97,4.92
			s2.05,3.04,3.87,4.29l9.84,7c1.82,1.29,3.16,2.72,4.01,4.29c0.85,1.57,1.25,3.14,1.19,4.69c-0.06,1.56-0.5,3-1.34,4.32
			c-0.84,1.33-2.02,2.39-3.56,3.18c-1.54,0.8-3.37,1.19-5.49,1.19c-2.5,0-4.68-0.56-6.51-1.68s-3.25-2.6-4.24-4.44
			c-0.99-1.84-1.4-3.87-1.25-6.09s0.97-4.45,2.45-6.68l-0.51-0.4c-1.52,1.82-2.53,3.73-3.04,5.72s-0.58,3.94-0.2,5.86
			C224.72,102.94,225.52,104.66,226.76,106.2z"/>
		<path class="st0" d="M266.38,105.09h-0.46c-0.64,0-1.23-0.28-1.76-0.85s-0.59-1.38-0.17-2.45h-0.01l2.53-5.92h12.86l2.48,5.92l0,0
			c0.42,1.06,0.36,1.88-0.17,2.45s-1.12,0.85-1.76,0.85h-0.46v0.57h15.02v-0.57h-0.46c-0.76,0-1.56-0.26-2.39-0.77
			c-0.84-0.51-1.52-1.36-2.05-2.53l0,0L274.8,70.22h-0.51c-0.04,0.38-0.18,0.9-0.43,1.57c-0.25,0.66-0.52,1.36-0.83,2.07
			c-0.3,0.72-0.58,1.35-0.82,1.88c-0.25,0.53-0.39,0.87-0.43,1.03l-11.65,25.03h-0.01c-0.53,1.18-1.21,2.02-2.05,2.53
			c-0.83,0.51-1.65,0.77-2.45,0.77h-0.46v0.57h11.21v-0.58C266.37,105.09,266.38,105.09,266.38,105.09z M273,80.68l5.51,13.14
			h-11.13L273,80.68z"/>
		<path class="st0" d="M295.67,72.75c0.49,0.47,0.76,1.05,0.8,1.73v19c0,4.02,1.33,7.18,3.98,9.47c2.65,2.29,6.54,3.44,11.66,3.44
			c4.51,0,8.01-1.16,10.49-3.47c2.48-2.31,3.73-5.5,3.73-9.56V74.48c0.04-0.68,0.31-1.26,0.82-1.73s1.13-0.71,1.85-0.71h0.8v-0.51
			h-3.47h-0.11h-3.13h-0.11h-3.47v0.51h0.85c0.72,0,1.34,0.24,1.85,0.71s0.77,1.05,0.77,1.73v19.17c0,3.34-0.9,5.96-2.7,7.88
			c-1.8,1.92-4.29,2.87-7.48,2.87c-3,0-5.36-1.01-7.08-3.04c-1.73-2.03-2.59-4.81-2.59-8.33V74.48c0-0.68,0.26-1.26,0.8-1.73
			c0.53-0.47,1.14-0.71,1.82-0.71h0.85v-0.51h-3.47h-0.11h-6.43h-0.11h-3.41v0.51h0.8C294.57,72.04,295.18,72.28,295.67,72.75z"/>
		<path class="st0" d="M337.6,105.66h2.62h3.98h8.47c3.98,0,7.39-0.68,10.24-2.05c2.84-1.37,5.03-3.32,6.57-5.86
			c1.53-2.54,2.3-5.59,2.3-9.16c0-3.56-0.77-6.62-2.3-9.16c-1.54-2.54-3.73-4.49-6.57-5.86c-2.84-1.36-6.26-2.05-10.24-2.05h-8.47
			h-4.67h-1.93h-0.11h-3.98v0.57h0.68c0.91,0,1.68,0.28,2.3,0.85c0.63,0.57,0.96,1.31,1,2.22v26.79c-0.04,0.83-0.36,1.56-0.97,2.19
			c-0.61,0.63-1.36,0.94-2.27,0.94h-0.74v0.57h3.98h0.11V105.66z M346.75,73.57c1.86,0,3.68,0,5.46,0c3.87,0,6.9,1.34,9.1,4.01
			c2.2,2.67,3.3,6.34,3.3,11.01c0,4.67-1.11,8.34-3.33,11.01s-5.24,4.01-9.07,4.01c-1.71,0-3.45,0-5.23,0c-0.82,0-1.75,0-2.79,0
			V73.57C345.13,73.57,346,73.57,346.75,73.57z"/>
		<path class="st0" d="M379.97,105.66h6.31h0.17h4.21v-0.57c-0.04,0-0.28,0-0.74,0c-0.95,0-1.75-0.29-2.42-0.88
			c-0.66-0.59-1.02-1.3-1.05-2.13V75.11c0.04-0.87,0.39-1.59,1.05-2.16c0.66-0.57,1.47-0.85,2.42-0.85c0.04,0,0.27,0,0.68,0
			l0.06-0.57h-4.21h-0.17h-6.31h-0.17h-4.21v0.57c0.46,0,0.7,0,0.74,0c0.95,0,1.76,0.28,2.45,0.85c0.68,0.57,1.03,1.29,1.03,2.16
			v26.96c0,0.83-0.34,1.54-1.03,2.13s-1.5,0.88-2.45,0.88h-0.74v0.57h4.21h0.17V105.66z"/>
		<path class="st0" d="M410.01,67.43c1.02,0.68,1.8,1.46,2.33,2.33l0,0l10.81,17.9v13.84c-0.04,0.99-0.41,1.83-1.11,2.53
			c-0.7,0.7-1.55,1.05-2.53,1.05c-0.04,0-0.29,0-0.74,0v0.57h4.38h0.17h6.6h0.17h4.32v-0.57h-0.68c-0.98,0-1.84-0.35-2.56-1.05
			c-0.72-0.7-1.08-1.54-1.08-2.53V87.66l11.18-17.89h0.03c0.57-0.87,1.37-1.65,2.42-2.33c1.04-0.68,2.15-1.02,3.33-1.02h0.8v-0.57
			H434.6v0.57h0.68c0.53,0,1,0.18,1.39,0.54c0.4,0.36,0.67,0.82,0.82,1.37s0.08,1.09-0.23,1.62h0.02l-8.67,15.12l-8.25-15.12h0.01
			c-0.42-0.8-0.4-1.58,0.06-2.36c0.45-0.78,1.1-1.17,1.93-1.17h0.68v-0.57h-17.18v0.57h0.8C407.87,66.41,408.98,66.75,410.01,67.43z
			"/>
		<path class="st0" d="M463.71,106.4c2.88,0,5.54-0.42,7.96-1.25c2.43-0.83,4.53-2.03,6.31-3.58c1.78-1.56,3.16-3.42,4.12-5.6
			c0.97-2.18,1.45-4.64,1.45-7.37s-0.48-5.18-1.45-7.37c-0.97-2.18-2.34-4.05-4.12-5.6s-3.89-2.75-6.31-3.58
			c-2.43-0.83-5.08-1.25-7.96-1.25s-5.54,0.42-7.96,1.25c-2.43,0.83-4.52,2.03-6.28,3.58c-1.76,1.56-3.13,3.42-4.1,5.6
			s-1.45,4.64-1.45,7.37s0.48,5.19,1.45,7.37s2.33,4.05,4.1,5.6c1.76,1.56,3.86,2.75,6.28,3.58S460.82,106.4,463.71,106.4z
			 M451.08,88.59c0-3.22,0.54-6.01,1.62-8.36s2.57-4.17,4.46-5.46c1.9-1.29,4.08-1.93,6.54-1.93c2.46,0,4.65,0.65,6.54,1.93
			c1.9,1.29,3.39,3.11,4.47,5.46s1.62,5.14,1.62,8.36c0,3.19-0.54,5.96-1.62,8.34c-1.08,2.37-2.57,4.2-4.47,5.49
			s-4.08,1.93-6.54,1.93c-2.47,0-4.65-0.64-6.54-1.93s-3.38-3.12-4.46-5.49C451.62,94.55,451.08,91.78,451.08,88.59z"/>
		<path class="st0" d="M490.67,93.48c0,4.02,1.33,7.18,3.98,9.47c2.65,2.29,6.54,3.44,11.66,3.44c4.51,0,8.01-1.16,10.49-3.47
			c2.48-2.31,3.73-5.5,3.73-9.56V74.48c0.04-0.68,0.31-1.26,0.82-1.73s1.13-0.71,1.85-0.71h0.8v-0.51h-3.47h-0.11h-3.13h-0.11h-3.47
			v0.51h0.85c0.72,0,1.34,0.24,1.85,0.71c0.51,0.47,0.77,1.05,0.77,1.73v19.17c0,3.34-0.9,5.96-2.7,7.88s-4.29,2.87-7.48,2.87
			c-3,0-5.36-1.01-7.08-3.04c-1.73-2.03-2.59-4.81-2.59-8.33V74.48c0-0.68,0.26-1.26,0.8-1.73c0.53-0.47,1.14-0.71,1.82-0.71h0.85
			v-0.51h-3.47h-0.11h-6.43h-0.11h-3.41v0.51h0.8c0.72,0,1.33,0.24,1.82,0.71c0.49,0.47,0.76,1.05,0.8,1.73v19H490.67z"/>
		<path class="st0" d="M546.84,104.21c-0.63-0.59-0.94-1.3-0.94-2.13v-28.5h7.79c1.4,0.04,2.49,0.47,3.27,1.28
			c0.78,0.82,1.15,1.89,1.11,3.21v0.68h0.63v-5.18V73.4v-1.37v-0.57v-0.91c-0.27,0.11-0.75,0.25-1.45,0.4s-1.47,0.28-2.3,0.37
			c-0.83,0.09-1.63,0.14-2.39,0.14h-20.14c-0.72,0-1.5-0.05-2.33-0.14c-0.84-0.09-1.59-0.22-2.25-0.37s-1.17-0.28-1.51-0.4v0.91
			v0.57v1.37v0.17v5.18h0.57v-0.68c0-1.33,0.39-2.4,1.17-3.21c0.78-0.82,1.87-1.24,3.27-1.28h7.79v28.5
			c-0.04,0.83-0.36,1.54-0.97,2.13s-1.35,0.88-2.22,0.88h-0.62v0.57h3.81h0.11h6.43h0.23h3.75v-0.57h-0.63
			C548.2,105.09,547.47,104.79,546.84,104.21z"/>
		<path class="st0" d="M596.19,75.11c0-0.87,0.3-1.59,0.91-2.16c0.61-0.57,1.35-0.85,2.22-0.85H600v-0.57h-3.87h-0.11h-6.37h-0.17
			h-3.81v0.57h0.63c0.87,0,1.61,0.28,2.22,0.85s0.93,1.29,0.97,2.16v12.57h-16.95V75.11c0-0.87,0.31-1.59,0.94-2.16
			c0.63-0.57,1.37-0.85,2.25-0.85h0.63v-0.57h-3.81h-0.17h-6.37h-0.17H562v0.57c0.42,0,0.64,0,0.68,0c0.87,0,1.61,0.28,2.22,0.85
			s0.91,1.29,0.91,2.16v26.96c0,0.83-0.3,1.54-0.91,2.13s-1.35,0.88-2.22,0.88c-0.04,0-0.27,0-0.68,0v0.57h3.81h0.17h6.37h0.17h3.81
			v-0.57h-0.63c-0.87,0-1.62-0.29-2.25-0.88s-0.94-1.3-0.94-2.13V89.73h16.95v12.34c-0.04,0.83-0.36,1.54-0.97,2.13
			s-1.35,0.88-2.22,0.88h-0.63v0.57h3.81h0.17h6.31h0.17h3.9v-0.57h-0.68c-0.87,0-1.61-0.29-2.22-0.88s-0.93-1.3-0.97-2.13V75.11
			H596.19z"/>
		<path class="st0" d="M252.54,131.31c-2.81-1.45-6.1-2.17-9.87-2.17c-3.74,0-7,0.72-9.8,2.17c-2.79,1.45-4.95,3.5-6.48,6.17
			c-1.53,2.66-2.29,5.8-2.29,9.41s0.76,6.74,2.29,9.41c1.53,2.66,3.69,4.72,6.48,6.17s6.06,2.17,9.8,2.17
			c3.77,0,7.06-0.72,9.87-2.17s4.98-3.5,6.51-6.17c1.53-2.66,2.29-5.8,2.29-9.41s-0.76-6.74-2.29-9.41
			C257.52,134.82,255.35,132.76,252.54,131.31z M253.27,155.32c-0.99,2.37-2.39,4.21-4.19,5.51c-1.8,1.3-3.94,1.95-6.41,1.95
			c-2.4,0-4.51-0.65-6.31-1.95s-3.2-3.13-4.19-5.51c-0.99-2.37-1.49-5.18-1.49-8.43s0.49-6.06,1.49-8.43
			c0.99-2.37,2.39-4.21,4.19-5.51s3.91-1.95,6.31-1.95c2.47,0,4.61,0.65,6.41,1.95s3.2,3.14,4.19,5.51s1.49,5.18,1.49,8.43
			C254.75,150.14,254.26,152.95,253.27,155.32z"/>
		<path class="st0" d="M284.29,135.75c-1.66-0.7-3.72-1.05-6.19-1.05h-4.39h-0.59h-4.68H268h-3.36v0.49c0.03,0,0.14,0,0.32,0
			s0.28,0,0.32,0c0.75,0,1.38,0.24,1.9,0.73c0.52,0.49,0.8,1.11,0.83,1.85v23.1c-0.03,0.71-0.31,1.32-0.83,1.83s-1.15,0.75-1.9,0.75
			h-0.59v0.49H268h0.44h4.78h0.49h3.27l0.05-0.49c-0.03,0-0.14,0-0.32,0s-0.28,0-0.32,0c-0.78,0-1.42-0.25-1.93-0.75
			c-0.41-0.41-0.66-0.9-0.75-1.45v-24.8h3.02c2.02,0,3.59,0.54,4.73,1.61s1.72,2.53,1.75,4.39c0,0.39-0.02,0.82-0.07,1.29
			c-0.05,0.47-0.12,0.92-0.22,1.34c-0.36,1.2-0.84,2.14-1.46,2.8c-0.62,0.67-1.27,1.16-1.97,1.46c-0.7,0.31-1.36,0.51-2,0.61
			s-1.34,0.11-2.12,0.05v0.44c1.59,0.98,3.22,1.5,4.9,1.56c1.67,0.07,3.2-0.27,4.58-1.02c1.38-0.75,2.49-1.81,3.32-3.19
			c0.83-1.38,1.21-3.03,1.15-4.95c-0.03-1.56-0.46-2.96-1.29-4.19C287.19,137.41,285.95,136.45,284.29,135.75z"/>
		<path class="st0" d="M312.32,135.75c-1.66-0.7-3.72-1.05-6.19-1.05h-4.39h-0.59h-4.68h-0.44h-3.36v0.49c0.03,0,0.14,0,0.32,0
			s0.28,0,0.32,0c0.75,0,1.38,0.24,1.9,0.73c0.52,0.49,0.8,1.11,0.83,1.85v23.1c-0.03,0.71-0.31,1.32-0.83,1.83s-1.15,0.75-1.9,0.75
			h-0.59v0.49h3.31h0.44h4.78h0.49h3.27l0.05-0.49c-0.03,0-0.14,0-0.32,0s-0.28,0-0.32,0c-0.78,0-1.42-0.25-1.93-0.75
			c-0.41-0.41-0.66-0.9-0.75-1.45v-24.8h3.02c2.02,0,3.59,0.54,4.73,1.61s1.72,2.53,1.75,4.39c0,0.39-0.02,0.82-0.07,1.29
			c-0.05,0.47-0.12,0.92-0.22,1.34c-0.36,1.2-0.84,2.14-1.46,2.8c-0.62,0.67-1.27,1.16-1.97,1.46c-0.7,0.31-1.36,0.51-2,0.61
			s-1.34,0.11-2.12,0.05v0.44c1.59,0.98,3.22,1.5,4.9,1.56c1.67,0.07,3.2-0.27,4.58-1.02c1.38-0.75,2.49-1.81,3.32-3.19
			c0.83-1.38,1.21-3.03,1.15-4.95c-0.03-1.56-0.46-2.96-1.29-4.19C315.22,137.41,313.98,136.45,312.32,135.75z"/>
		<path class="st0" d="M350.38,138.21c-1.53-1.33-3.33-2.36-5.41-3.07c-2.08-0.71-4.36-1.07-6.82-1.07s-4.74,0.36-6.82,1.07
			c-2.08,0.71-3.88,1.74-5.39,3.07s-2.68,2.93-3.51,4.8c-0.83,1.87-1.24,3.97-1.24,6.31s0.41,4.45,1.24,6.31
			c0.83,1.87,2,3.47,3.51,4.8s3.31,2.36,5.39,3.07c2.08,0.71,4.35,1.07,6.82,1.07s4.74-0.36,6.82-1.07
			c2.08-0.71,3.88-1.74,5.41-3.07s2.71-2.93,3.53-4.8c0.83-1.87,1.24-3.97,1.24-6.31s-0.41-4.44-1.24-6.31
			C353.09,141.14,351.91,139.54,350.38,138.21z M347.58,156.47c-0.93,2.03-2.2,3.6-3.83,4.7c-1.62,1.11-3.49,1.66-5.61,1.66
			c-2.11,0-3.98-0.55-5.6-1.66c-1.63-1.11-2.9-2.67-3.83-4.7s-1.39-4.41-1.39-7.14c0-2.76,0.46-5.15,1.39-7.16
			c0.93-2.02,2.2-3.57,3.83-4.68c1.62-1.11,3.49-1.66,5.6-1.66c2.11,0,3.98,0.55,5.61,1.66c1.62,1.11,2.9,2.66,3.83,4.68
			c0.93,2.01,1.39,4.4,1.39,7.16C348.97,152.05,348.51,154.43,347.58,156.47z"/>
		<path class="st0" d="M386.01,162.02c-0.52-0.5-1.11-1.18-1.75-2.02c-0.59-0.75-1.15-1.51-1.71-2.29
			c-0.55-0.78-1.02-1.45-1.39-2.02c-0.37-0.57-0.61-0.92-0.71-1.05c-0.46-0.75-1.1-1.54-1.93-2.39c-0.83-0.84-1.65-1.4-2.46-1.66
			c1.56-0.2,2.86-0.69,3.9-1.49c1.04-0.79,1.82-1.77,2.34-2.92s0.78-2.33,0.78-3.53c0-1.43-0.27-2.65-0.8-3.65
			c-0.54-1.01-1.28-1.83-2.24-2.46s-2.06-1.1-3.31-1.39s-2.59-0.44-4.02-0.44h-5.07h-0.49h-4.78h-0.49h-3.22v0.49
			c0.03,0,0.13,0,0.29,0s0.27,0,0.34,0c0.72,0,1.32,0.24,1.83,0.73c0.41,0.4,0.66,0.89,0.75,1.47v23.86
			c-0.1,0.56-0.34,1.04-0.75,1.46c-0.5,0.5-1.13,0.75-1.88,0.75c-0.03,0-0.13,0-0.29,0s-0.26,0-0.29,0v0.49h3.22h0.49h4.83h0.44
			h3.31l-0.05-0.49c-0.03,0-0.21,0-0.54,0c-0.72,0-1.34-0.24-1.88-0.73c-0.54-0.49-0.82-1.11-0.85-1.85v-24.32
			c0.19,0,0.6-0.01,1.27-0.02c0.71-0.02,1.54-0.01,2.49,0.02c0.62,0.03,1.24,0.15,1.88,0.34s1.23,0.5,1.78,0.93
			c0.55,0.42,1.01,1,1.37,1.73s0.55,1.65,0.58,2.75c0.03,0.49,0.03,0.93-0.02,1.32c-0.05,0.39-0.12,0.71-0.22,0.97
			c-0.29,1.37-0.75,2.37-1.39,3.02c-0.63,0.65-1.33,1.07-2.1,1.27c-0.76,0.2-1.52,0.31-2.27,0.34c-0.52,0.03-0.93,0.04-1.24,0.03
			s-0.48-0.03-0.51-0.03v0.44c0.62,0.03,1.25,0.32,1.9,0.85c0.65,0.54,1.22,1.28,1.71,2.22c0.1,0.32,0.31,0.79,0.63,1.39
			s0.68,1.23,1.07,1.9s0.77,1.31,1.15,1.92c0.37,0.62,0.67,1.11,0.9,1.46c0.68,1.01,1.44,1.85,2.27,2.53s1.84,1.19,3.05,1.51
			c1.2,0.32,2.68,0.49,4.43,0.49h3.22v-0.49c-0.72,0-1.36-0.11-1.93-0.34C387.08,162.89,386.53,162.53,386.01,162.02z"/>
		<path class="st0" d="M412.09,134.53c-0.72,0.08-1.4,0.12-2.05,0.12h-17.26c-0.62,0-1.28-0.04-2-0.12s-1.36-0.19-1.93-0.32
			s-1-0.24-1.29-0.34v0.78v0.49v1.17v0.15v4.44h0.49v-0.58c0-1.14,0.33-2.06,1-2.75c0.67-0.7,1.6-1.07,2.8-1.1h6.68v24.42
			c-0.03,0.71-0.31,1.32-0.83,1.83c-0.52,0.5-1.15,0.75-1.9,0.75h-0.54v0.49h3.27h0.1h5.51h0.2h3.22v-0.49h-0.54
			c-0.72,0-1.34-0.25-1.88-0.75s-0.8-1.11-0.8-1.83v-24.42h6.68c1.2,0.03,2.14,0.4,2.8,1.1c0.67,0.7,0.98,1.62,0.95,2.75v0.58h0.54
			v-4.44v-0.15v-1.17v-0.49v-0.78c-0.23,0.1-0.64,0.21-1.24,0.34C413.47,134.35,412.81,134.45,412.09,134.53z"/>
		<path class="st0" d="M446.02,134.7h-2.68h-0.1h-2.97v0.44H441c0.62,0,1.15,0.2,1.58,0.61c0.44,0.41,0.66,0.9,0.66,1.49v16.43
			c0,2.86-0.77,5.11-2.32,6.75c-1.54,1.64-3.68,2.46-6.41,2.46c-2.57,0-4.59-0.87-6.07-2.61s-2.22-4.12-2.22-7.14v-15.89
			c0-0.59,0.23-1.08,0.68-1.49c0.45-0.41,0.97-0.61,1.56-0.61h0.73v-0.44h-2.97h-0.1h-5.51h-0.1h-2.93v0.44h0.68
			c0.62,0,1.14,0.2,1.56,0.61c0.42,0.41,0.65,0.9,0.68,1.49v16.28c0,3.45,1.14,6.15,3.41,8.12s5.6,2.95,9.99,2.95
			c3.87,0,6.86-0.99,8.99-2.97s3.19-4.71,3.19-8.19v-16.18c0.03-0.59,0.27-1.08,0.71-1.49s0.97-0.61,1.58-0.61h0.68v-0.44h-2.97
			L446.02,134.7L446.02,134.7z"/>
		<path class="st0" d="M483.21,134.7h-4.92h-0.1h-3.51v0.49h0.83c0.75,0,1.37,0.24,1.88,0.71c0.5,0.47,0.77,1.06,0.8,1.78v17.34
			l-23.35-21h-0.49c0.32,2.14,0.49,4.05,0.49,5.7v21.25c0,0.71-0.26,1.31-0.78,1.78s-1.15,0.71-1.9,0.71h-0.78v0.49h3.46h0.15h4.92
			h0.1h3.51v-0.49h-0.83c-0.72,0-1.33-0.23-1.85-0.71c-0.52-0.47-0.8-1.06-0.83-1.78V143.5l23.4,21.08h0.44
			c-0.16-1.04-0.29-2.01-0.37-2.9s-0.12-1.88-0.12-2.95v-21.06c0-0.71,0.27-1.31,0.8-1.78c0.54-0.47,1.16-0.71,1.88-0.71h0.83v-0.49
			h-3.51L483.21,134.7L483.21,134.7z"/>
		<path class="st0" d="M500.29,135.92c0.57-0.49,1.26-0.73,2.07-0.73c0.03,0,0.23,0,0.59,0l0.05-0.49h-3.61h-0.15h-5.41h-0.15h-3.61
			v0.49c0.39,0,0.6,0,0.64,0c0.81,0,1.51,0.24,2.1,0.73c0.59,0.49,0.88,1.11,0.88,1.85v23.1c0,0.71-0.29,1.32-0.88,1.83
			c-0.59,0.5-1.28,0.75-2.1,0.75h-0.64v0.49h3.61h0.15h5.41h0.15H503v-0.49c-0.03,0-0.24,0-0.63,0c-0.81,0-1.5-0.25-2.07-0.75
			s-0.87-1.11-0.9-1.83v-23.1C499.42,137.03,499.72,136.41,500.29,135.92z"/>
		<path class="st0" d="M530.09,134.53c-0.72,0.08-1.4,0.12-2.05,0.12h-17.26c-0.62,0-1.28-0.04-2-0.12s-1.36-0.19-1.93-0.32
			s-1-0.24-1.29-0.34v0.78v0.49v1.17v0.15v4.44h0.49v-0.58c0-1.14,0.33-2.06,1-2.75c0.67-0.7,1.6-1.07,2.8-1.1h6.68v24.42
			c-0.03,0.71-0.31,1.32-0.83,1.83c-0.52,0.5-1.15,0.75-1.9,0.75h-0.54v0.49h3.27h0.1h5.51h0.2h3.22v-0.49h-0.54
			c-0.72,0-1.34-0.25-1.88-0.75s-0.8-1.11-0.8-1.83v-24.42h6.68c1.2,0.03,2.14,0.4,2.8,1.1c0.67,0.7,0.98,1.62,0.95,2.75v0.58h0.54
			v-4.44v-0.15v-1.17v-0.49v-0.78c-0.23,0.1-0.64,0.21-1.24,0.34C531.47,134.35,530.81,134.45,530.09,134.53z"/>
		<path class="st0" d="M546.35,135.92c0.57-0.49,1.26-0.73,2.07-0.73c0.03,0,0.23,0,0.59,0l0.05-0.49h-3.61h-0.15h-5.41h-0.15h-3.61
			v0.49c0.39,0,0.6,0,0.64,0c0.81,0,1.51,0.24,2.1,0.73c0.59,0.49,0.88,1.11,0.88,1.85v23.1c0,0.71-0.29,1.32-0.88,1.83
			c-0.59,0.5-1.28,0.75-2.1,0.75h-0.64v0.49h3.61h0.15h5.41h0.15h3.61v-0.49c-0.03,0-0.24,0-0.63,0c-0.81,0-1.5-0.25-2.07-0.75
			s-0.87-1.11-0.9-1.83v-23.1C545.48,137.03,545.78,136.41,546.35,135.92z"/>
		<path class="st0" d="M574.69,159.07c-0.72,0.98-1.6,1.73-2.66,2.27c-1.06,0.54-2.33,0.8-3.83,0.8h-6.29V150.3h6.43
			c1.01,0.03,1.79,0.36,2.34,0.97c0.55,0.62,0.83,1.38,0.83,2.29V154H572v-3.7v-0.1v-1.61v-0.1v-3.65h-0.49v0.44
			c0,0.91-0.28,1.67-0.83,2.29s-1.33,0.93-2.34,0.93h-6.43v-12h8.04c1.2,0,2.13,0.36,2.78,1.07s0.98,1.66,0.98,2.83v0.54h0.54v-4.44
			v-0.15v-1.17v-0.49v-0.78c-0.42,0.16-1.17,0.33-2.24,0.51s-2.08,0.27-3.02,0.27h-7.07h-0.1h-5.17h-0.44h-3.36v0.49h0.64
			c0.75,0,1.38,0.24,1.9,0.73c0.52,0.49,0.8,1.11,0.83,1.85v23.1c-0.03,0.71-0.31,1.32-0.83,1.83c-0.52,0.5-1.15,0.75-1.9,0.75
			h-0.64v0.49h3.36h0.44h5.17h0.1h4.73h7.99h0.1l2.14-8.29h-0.44C575.99,156.96,575.41,158.1,574.69,159.07z"/>
		<path class="st0" d="M596.58,149.47l-8.38-5.7c-0.59-0.36-1.09-0.73-1.51-1.12s-0.74-0.8-0.95-1.24s-0.32-0.93-0.32-1.49
			c0.03-1.17,0.57-2.14,1.61-2.9s2.34-1.15,3.9-1.15c1.95,0,3.43,0.42,4.44,1.27c1.01,0.84,1.51,1.98,1.51,3.41h0.44l0.36-5.22h0.02
			l0.05-0.83h-2.31c-0.33-0.05-0.68-0.1-1.05-0.15c-0.78-0.1-1.58-0.17-2.41-0.22c-0.83-0.05-1.62-0.07-2.36-0.07
			c-1.59,0-3.02,0.3-4.27,0.9c-1.25,0.6-2.25,1.45-3,2.53c-0.75,1.09-1.17,2.36-1.27,3.83c-0.13,1.4,0.1,2.72,0.68,3.97
			c0.59,1.25,1.58,2.28,2.97,3.09l7.85,5.46c1.07,0.62,1.84,1.27,2.32,1.95c0.47,0.68,0.71,1.45,0.71,2.29
			c0,1.33-0.5,2.45-1.51,3.34s-2.47,1.36-4.39,1.39c-1.62,0-3.03-0.33-4.22-1c-1.18-0.67-2.08-1.58-2.68-2.75s-0.85-2.49-0.75-3.95
			h-0.49c-0.29,0.62-0.54,1.36-0.75,2.24s-0.33,1.75-0.37,2.61c-0.03,0.86,0.05,1.57,0.24,2.12c0.55,0.52,1.27,0.97,2.14,1.34
			c0.88,0.37,1.9,0.66,3.07,0.85c1.17,0.2,2.37,0.29,3.61,0.29c2.05,0,3.85-0.35,5.41-1.05s2.79-1.69,3.68-2.97s1.36-2.77,1.39-4.46
			c0.06-1.46-0.21-2.77-0.83-3.92C598.54,151.02,597.68,150.12,596.58,149.47z"/>
	</g>
	<g>
		<path class="st0" d="M92.61,114.07v99.79c0,0,0,0.01-0.01,0c-14.37-8.84-23.96-24.71-23.96-42.82c0-8.23,1.98-15.99,5.49-22.85
			C80.29,136.82,86.45,125.44,92.61,114.07z"/>
		<path class="st0" d="M84.34,109.45l-41.83,72.44c-6.73-12.44-7.04-27.98,0.55-41.13c3.45-5.97,8.14-10.78,13.56-14.29
			C65.86,120.8,75.1,115.12,84.34,109.45z"/>
		<path class="st0" d="M79.55,100.91L10.4,140.84l0,0c0.37-13.5,7.54-26.49,20.09-33.74c5.7-3.29,11.87-5.03,18.03-5.34
			C58.86,101.47,69.21,101.19,79.55,100.91z"/>
		<path class="st0" d="M79.86,92.97H0C7.07,81.47,19.77,73.8,34.27,73.8c6.58,0,12.8,1.58,18.28,4.39
			C61.65,83.12,70.75,88.05,79.86,92.97z"/>
		<path class="st0" d="M83.96,85.52L14.8,45.59c11.88-6.43,26.71-6.72,39.27,0.53c5.7,3.29,10.29,7.77,13.64,12.94
			C73.13,67.88,78.54,76.7,83.96,85.52z"/>
		<path class="st0" d="M92.42,80.56L52.49,11.41l0,0c13.5,0.37,26.49,7.54,33.74,20.09c3.29,5.7,5.03,11.87,5.34,18.03
			C91.85,59.87,92.14,70.22,92.42,80.56z"/>
		<path class="st0" d="M100.46,114.07v99.79c0,0,0,0.01,0.01,0c14.37-8.84,23.96-24.71,23.96-42.82c0-8.23-1.98-15.99-5.49-22.85
			C112.78,136.82,106.62,125.44,100.46,114.07z"/>
		<path class="st0" d="M108.73,109.45l41.83,72.44c6.73-12.44,7.04-27.98-0.55-41.13c-3.45-5.97-8.14-10.78-13.56-14.29
			C127.21,120.8,117.97,115.12,108.73,109.45z"/>
		<path class="st0" d="M113.52,100.91l69.16,39.93l0,0c-0.37-13.5-7.54-26.49-20.09-33.74c-5.7-3.29-11.87-5.03-18.03-5.34
			C134.22,101.47,123.87,101.19,113.52,100.91z"/>
		<path class="st0" d="M113.22,92.97h79.86C186,81.47,173.3,73.8,158.8,73.8c-6.58,0-12.8,1.58-18.28,4.39
			C131.42,83.12,122.32,88.05,113.22,92.97z"/>
		<path class="st0" d="M109.11,85.52l69.16-39.93c-11.88-6.43-26.71-6.72-39.27,0.53c-5.7,3.29-10.29,7.77-13.64,12.94
			C119.95,67.88,114.53,76.7,109.11,85.52z"/>
		<path class="st0" d="M100.66,80.56l39.93-69.16l0,0c-13.5,0.37-26.49,7.54-33.74,20.09c-3.29,5.7-5.03,11.87-5.34,18.03
			C101.22,59.87,100.94,70.22,100.66,80.56z"/>
		<path class="st0" d="M102.13,17.36c0,0.02,0,0.04,0,0.06c-0.01,3.33-1.04,6.56-2.71,9.44c-0.05,0.08-0.1,0.17-0.15,0.25
			c-1.03,1.78-1.95,3.63-2.74,5.54c-0.79-1.91-1.7-3.76-2.74-5.54c-0.04-0.08-0.09-0.15-0.13-0.23c-1.67-2.88-2.7-6.11-2.71-9.44
			c0-0.03,0-0.06,0-0.09c0-7.34,2.23-13.78,5.58-17.36c1.68,1.79,3.07,4.3,4.05,7.27C101.56,10.24,102.13,13.69,102.13,17.36z"/>
	</g>
</g>
</svg>
