<?xml version="1.0" encoding="utf-8"?>
<!-- Generator: Adobe Illustrator 27.8.1, SVG Export Plug-In . SVG Version: 6.00 Build 0)  -->
<svg version="1.1" id="Calque_1" xmlns="http://www.w3.org/2000/svg" xmlns:xlink="http://www.w3.org/1999/xlink" x="0px" y="0px"
	 viewBox="0 0 400 358.5" style="enable-background:new 0 0 400 358.5;" xml:space="preserve">
<style type="text/css">
	.st0{fill:#FFFFFF;}
</style>
<g>
	<g>
		<path class="st0" d="M2.83,296.33c1.31,1.63,3.05,2.93,5.2,3.9c2.16,0.97,4.67,1.45,7.54,1.45c2.78,0,5.27-0.45,7.45-1.33
			c2.18-0.89,4-2.09,5.48-3.6c1.47-1.51,2.54-3.23,3.21-5.14s0.89-3.89,0.67-5.93c-0.22-2.04-0.93-4.02-2.12-5.96
			c-1.19-1.94-2.92-3.67-5.17-5.21l-11.26-7.87c-0.77-0.52-1.44-1.07-2.03-1.63c-0.59-0.57-1.03-1.17-1.33-1.82
			s-0.44-1.33-0.39-2.06c0.04-1.82,0.77-3.32,2.18-4.51s3.25-1.79,5.51-1.79c2.34,0,4.27,0.59,5.78,1.79
			c1.51,1.19,2.29,2.83,2.33,4.93h0.6l0.42-7.69c-0.01,0-0.03-0.01-0.04-0.01l0.04-0.71h-3.29c-0.48-0.07-0.99-0.14-1.53-0.21
			c-1.07-0.14-2.12-0.24-3.15-0.3c-1.03-0.06-1.91-0.09-2.63-0.09c-2.46,0-4.57,0.48-6.33,1.42c-1.76,0.95-3.11,2.21-4.06,3.78
			s-1.48,3.31-1.6,5.21c-0.12,1.77,0.22,3.52,1.03,5.23c0.81,1.72,2.18,3.24,4.12,4.57l10.47,7.45c1.94,1.37,3.36,2.9,4.27,4.57
			s1.33,3.34,1.27,4.99s-0.53,3.19-1.42,4.6s-2.15,2.54-3.78,3.39c-1.64,0.85-3.58,1.27-5.84,1.27c-2.66,0-4.98-0.6-6.93-1.79
			c-1.96-1.19-3.46-2.76-4.51-4.72c-1.05-1.95-1.49-4.12-1.33-6.48c0.16-2.36,1.03-4.73,2.6-7.11l-0.54-0.42
			c-1.61,1.94-2.69,3.97-3.24,6.08c-0.54,2.12-0.62,4.2-0.21,6.24C0.66,292.86,1.52,294.69,2.83,296.33z"/>
		<path class="st0" d="M44.99,295.14H44.5c-0.69,0-1.31-0.3-1.88-0.91c-0.57-0.6-0.63-1.47-0.18-2.6h-0.01l2.69-6.3h13.69l2.64,6.3
			l0,0c0.44,1.13,0.38,2-0.18,2.6c-0.57,0.61-1.19,0.91-1.88,0.91h-0.48v0.6h15.98v-0.6h-0.48c-0.81,0-1.66-0.27-2.54-0.82
			c-0.89-0.55-1.62-1.44-2.18-2.69l0,0l-15.73-33.59H53.4c-0.04,0.41-0.19,0.96-0.45,1.67c-0.26,0.71-0.56,1.44-0.88,2.21
			s-0.62,1.43-0.88,2c-0.26,0.57-0.41,0.93-0.45,1.09l-12.39,26.63h-0.02c-0.57,1.25-1.29,2.15-2.18,2.69s-1.76,0.82-2.6,0.82h-0.48
			v0.6h11.92C44.99,295.75,44.99,295.14,44.99,295.14z M52.03,269.17l5.87,13.98H46.06L52.03,269.17z"/>
		<path class="st0" d="M76.16,260.73c0.52,0.5,0.81,1.12,0.85,1.85v20.22c0,4.28,1.41,7.64,4.24,10.08
			c2.82,2.44,6.96,3.66,12.41,3.66c4.8,0,8.52-1.23,11.17-3.69c2.64-2.46,3.97-5.85,3.97-10.17v-20.1c0.04-0.73,0.33-1.34,0.88-1.85
			c0.54-0.5,1.2-0.76,1.97-0.76h0.85v-0.54h-3.69h-0.12h-3.33h-0.12h-3.69v0.54h0.91c0.77,0,1.42,0.25,1.97,0.76
			c0.54,0.5,0.82,1.12,0.82,1.85v20.4c0,3.55-0.96,6.34-2.88,8.38s-4.57,3.06-7.96,3.06c-3.19,0-5.7-1.08-7.54-3.24
			c-1.84-2.16-2.75-5.11-2.75-8.87v-19.73c0-0.73,0.28-1.34,0.85-1.85c0.57-0.5,1.21-0.76,1.94-0.76h0.91v-0.54h-3.69h-0.12h-6.84
			h-0.12h-3.63v0.54h0.85C74.99,259.98,75.64,260.23,76.16,260.73z"/>
		<path class="st0" d="M120.77,295.75h2.78h4.24h9.02c4.24,0,7.87-0.73,10.9-2.18c3.03-1.45,5.36-3.53,6.99-6.24
			c1.63-2.7,2.45-5.95,2.45-9.75c0-3.79-0.82-7.04-2.45-9.74c-1.64-2.7-3.97-4.78-6.99-6.24c-3.03-1.45-6.66-2.18-10.9-2.18h-9.02
			h-4.96h-2.06h-0.12h-4.24v0.6h0.72c0.97,0,1.79,0.3,2.45,0.91c0.67,0.6,1.02,1.39,1.06,2.36v28.51c-0.04,0.89-0.38,1.66-1.03,2.33
			c-0.65,0.67-1.45,1-2.42,1h-0.79v0.6h4.24h0.13V295.75z M130.52,261.61c1.98,0,3.91,0,5.81,0c4.12,0,7.35,1.42,9.69,4.27
			c2.34,2.84,3.51,6.75,3.51,11.71s-1.18,8.87-3.54,11.71s-5.58,4.27-9.65,4.27c-1.82,0-3.67,0-5.57,0c-0.87,0-1.87,0-2.96,0v-31.96
			C128.79,261.61,129.72,261.61,130.52,261.61z"/>
		<path class="st0" d="M165.87,295.75h6.72h0.18h4.48v-0.6c-0.04,0-0.3,0-0.79,0c-1.01,0-1.87-0.31-2.57-0.94
			c-0.71-0.63-1.08-1.38-1.12-2.27v-28.69c0.04-0.93,0.41-1.7,1.12-2.3c0.71-0.61,1.56-0.91,2.57-0.91c0.04,0,0.28,0,0.73,0
			l0.06-0.6h-4.48h-0.18h-6.72h-0.18h-4.48v0.6c0.48,0,0.75,0,0.79,0c1.01,0,1.88,0.3,2.6,0.91c0.73,0.6,1.09,1.37,1.09,2.3v28.69
			c0,0.89-0.36,1.64-1.09,2.27c-0.73,0.63-1.59,0.94-2.6,0.94h-0.79v0.6h4.48H165.87z"/>
		<path class="st0" d="M197.83,255.07c1.09,0.73,1.92,1.55,2.48,2.48l0,0l11.5,19.05v14.73c-0.04,1.05-0.44,1.95-1.18,2.69
			c-0.75,0.75-1.64,1.12-2.69,1.12c-0.04,0-0.3,0-0.79,0v0.6h4.66h0.18h7.02h0.18h4.6v-0.6h-0.73c-1.05,0-1.96-0.37-2.72-1.12
			c-0.77-0.75-1.15-1.64-1.15-2.69V276.6l11.89-19.04h0.03c0.61-0.93,1.46-1.76,2.57-2.48s2.29-1.09,3.54-1.09h0.85v-0.6h-14.1v0.6
			h0.73c0.56,0,1.06,0.19,1.48,0.57c0.42,0.39,0.72,0.87,0.88,1.45c0.16,0.59,0.08,1.16-0.24,1.73h0.02l-9.23,16.09l-8.78-16.09
			h0.01c-0.44-0.85-0.42-1.68,0.06-2.51s1.17-1.24,2.06-1.24h0.73v-0.6h-18.28v0.6h0.85C195.55,253.98,196.74,254.35,197.83,255.07z
			"/>
		<path class="st0" d="M254.97,296.54c3.06,0,5.89-0.44,8.47-1.33c2.58-0.89,4.82-2.16,6.72-3.81s3.36-3.64,4.39-5.96
			c1.03-2.32,1.54-4.93,1.54-7.84c0-2.9-0.51-5.52-1.54-7.84s-2.49-4.31-4.39-5.96c-1.9-1.65-4.14-2.93-6.72-3.81
			c-2.58-0.89-5.41-1.33-8.47-1.33c-3.07,0-5.89,0.44-8.48,1.33c-2.58,0.89-4.81,2.16-6.69,3.81s-3.33,3.64-4.36,5.96
			c-1.03,2.32-1.54,4.93-1.54,7.84s0.51,5.52,1.54,7.84s2.48,4.31,4.36,5.96s4.1,2.93,6.69,3.81
			C249.08,296.09,251.9,296.54,254.97,296.54z M241.53,277.59c0-3.43,0.57-6.39,1.73-8.9c1.15-2.5,2.73-4.44,4.75-5.81
			s4.34-2.06,6.96-2.06c2.62,0,4.94,0.69,6.96,2.06s3.6,3.31,4.75,5.81s1.73,5.47,1.73,8.9c0,3.39-0.57,6.35-1.73,8.87
			c-1.15,2.52-2.73,4.47-4.75,5.84s-4.34,2.06-6.96,2.06c-2.62,0-4.95-0.69-6.96-2.06c-2.02-1.37-3.6-3.32-4.75-5.84
			C242.11,283.94,241.53,280.98,241.53,277.59z"/>
		<path class="st0" d="M283.66,282.8c0,4.28,1.41,7.64,4.24,10.08c2.82,2.44,6.96,3.66,12.41,3.66c4.8,0,8.52-1.23,11.17-3.69
			c2.64-2.46,3.97-5.85,3.97-10.17v-20.1c0.04-0.73,0.33-1.34,0.88-1.85c0.54-0.5,1.2-0.76,1.97-0.76h0.85v-0.54h-3.69h-0.12h-3.33
			h-0.12h-3.69v0.54h0.91c0.76,0,1.42,0.25,1.97,0.76c0.54,0.5,0.82,1.12,0.82,1.85v20.4c0,3.55-0.96,6.34-2.88,8.38
			s-4.57,3.06-7.96,3.06c-3.19,0-5.7-1.08-7.54-3.24s-2.75-5.11-2.75-8.87v-19.73c0-0.73,0.28-1.34,0.85-1.85
			c0.57-0.5,1.21-0.76,1.94-0.76h0.91v-0.54h-3.69h-0.12h-6.84h-0.12h-3.63v0.54h0.85c0.77,0,1.41,0.25,1.94,0.76
			c0.52,0.5,0.81,1.12,0.85,1.85v20.22H283.66z"/>
		<path class="st0" d="M343.43,294.21c-0.67-0.63-1-1.38-1-2.27v-30.33h8.29c1.49,0.04,2.65,0.5,3.48,1.36
			c0.83,0.87,1.22,2.01,1.18,3.42v0.73h0.67v-5.51v-0.18v-1.45v-0.61v-0.97c-0.28,0.12-0.8,0.26-1.54,0.42
			c-0.75,0.16-1.56,0.29-2.45,0.39s-1.73,0.15-2.54,0.15h-21.43c-0.77,0-1.59-0.05-2.48-0.15s-1.69-0.23-2.39-0.39
			c-0.71-0.16-1.24-0.3-1.6-0.42v0.97v0.61v1.45v0.18v5.51h0.6v-0.73c0-1.41,0.41-2.55,1.24-3.42c0.83-0.87,1.99-1.32,3.48-1.36
			h8.29v30.33c-0.04,0.89-0.38,1.64-1.03,2.27c-0.65,0.63-1.43,0.94-2.36,0.94h-0.66v0.6h4.06h0.12h6.84h0.24h4v-0.6h-0.67
			C344.88,295.14,344.1,294.83,343.43,294.21z"/>
		<path class="st0" d="M395.94,263.25c0-0.93,0.32-1.7,0.97-2.3c0.65-0.61,1.43-0.91,2.36-0.91H400v-0.6h-4.12h-0.12h-6.78h-0.18
			h-4.06v0.6h0.67c0.93,0,1.71,0.3,2.36,0.91c0.65,0.6,0.99,1.37,1.03,2.3v13.38h-18.04v-13.38c0-0.93,0.33-1.7,1-2.3
			c0.67-0.61,1.46-0.91,2.39-0.91h0.67v-0.6h-4.06h-0.18h-6.78h-0.18h-4.06v0.6c0.44,0,0.69,0,0.73,0c0.93,0,1.71,0.3,2.36,0.91
			c0.65,0.6,0.97,1.37,0.97,2.3v28.69c0,0.89-0.32,1.64-0.97,2.27c-0.65,0.63-1.43,0.94-2.36,0.94c-0.04,0-0.28,0-0.73,0v0.6h4.06
			h0.18h6.78h0.18h4.06v-0.6h-0.67c-0.93,0-1.72-0.31-2.39-0.94s-1-1.38-1-2.27V278.8h18.04v13.14c-0.04,0.89-0.38,1.64-1.03,2.27
			c-0.65,0.63-1.43,0.94-2.36,0.94h-0.67v0.6h4.06h0.18h6.72h0.18H400v-0.6h-0.73c-0.93,0-1.72-0.31-2.36-0.94
			c-0.64-0.63-0.99-1.38-1.03-2.27v-28.69H395.94z"/>
		<path class="st0" d="M30.26,323.05c-2.99-1.54-6.49-2.31-10.5-2.31c-3.98,0-7.45,0.77-10.42,2.31s-5.27,3.73-6.9,6.56
			C0.81,332.45,0,335.78,0,339.62s0.81,7.18,2.44,10.01c1.63,2.84,3.92,5.02,6.9,6.56c2.97,1.54,6.45,2.31,10.42,2.31
			c4.01,0,7.51-0.77,10.5-2.31s5.3-3.73,6.92-6.56c1.63-2.83,2.44-6.17,2.44-10.01s-0.81-7.18-2.44-10.01
			C35.56,326.78,33.25,324.59,30.26,323.05z M31.04,348.6c-1.06,2.52-2.54,4.48-4.46,5.86c-1.92,1.38-4.19,2.07-6.82,2.07
			c-2.56,0-4.8-0.69-6.72-2.07s-3.41-3.34-4.46-5.86C7.53,346.07,7,343.08,7,339.62s0.53-6.45,1.58-8.97
			c1.06-2.52,2.54-4.48,4.46-5.86c1.92-1.38,4.16-2.07,6.72-2.07c2.63,0,4.9,0.69,6.82,2.07s3.41,3.34,4.46,5.86
			c1.05,2.53,1.58,5.52,1.58,8.97C32.62,343.08,32.09,346.07,31.04,348.6z"/>
		<path class="st0" d="M64.05,327.77c-1.76-0.74-3.96-1.11-6.59-1.11H52.8h-0.62H47.2h-0.47h-3.58v0.52c0.04,0,0.15,0,0.34,0
			s0.3,0,0.34,0c0.79,0,1.47,0.26,2.02,0.78s0.85,1.18,0.88,1.97v24.58c-0.03,0.76-0.33,1.41-0.88,1.95s-1.23,0.8-2.02,0.8H43.2
			v0.52h3.53h0.47h5.08h0.52h3.48l0.05-0.52c-0.03,0-0.15,0-0.34,0s-0.3,0-0.34,0c-0.83,0-1.51-0.27-2.05-0.8
			c-0.48-0.48-0.72-1.06-0.8-1.71v-26.22h3.21c2.14,0,3.82,0.57,5.03,1.71c1.21,1.14,1.83,2.7,1.87,4.67c0,0.42-0.03,0.88-0.08,1.38
			c-0.05,0.5-0.13,0.98-0.24,1.43c-0.38,1.28-0.9,2.27-1.56,2.98c-0.66,0.71-1.36,1.23-2.1,1.56c-0.74,0.33-1.45,0.54-2.13,0.65
			c-0.68,0.1-1.43,0.12-2.26,0.05v0.47c1.69,1.04,3.43,1.59,5.21,1.66s3.41-0.29,4.87-1.09c1.47-0.79,2.64-1.93,3.53-3.4
			c0.88-1.47,1.29-3.22,1.22-5.26c-0.04-1.66-0.49-3.14-1.38-4.46C67.14,329.54,65.82,328.52,64.05,327.77z"/>
		<path class="st0" d="M93.88,327.77c-1.76-0.74-3.96-1.11-6.59-1.11h-4.67H82h-4.98h-0.47h-3.58v0.52c0.04,0,0.15,0,0.34,0
			c0.19,0,0.3,0,0.34,0c0.79,0,1.47,0.26,2.02,0.78c0.55,0.52,0.85,1.18,0.88,1.97v24.58c-0.03,0.76-0.33,1.41-0.88,1.95
			c-0.55,0.54-1.23,0.8-2.02,0.8h-0.62v0.52h3.53h0.47h5.08h0.52h3.48l0.05-0.52c-0.03,0-0.15,0-0.34,0c-0.19,0-0.3,0-0.34,0
			c-0.83,0-1.51-0.27-2.05-0.8c-0.48-0.48-0.72-1.06-0.8-1.71v-26.22h3.21c2.14,0,3.82,0.57,5.03,1.71c1.21,1.14,1.83,2.7,1.87,4.67
			c0,0.42-0.03,0.88-0.08,1.38s-0.13,0.98-0.24,1.43c-0.38,1.28-0.9,2.27-1.56,2.98c-0.66,0.71-1.36,1.23-2.1,1.56
			s-1.45,0.54-2.13,0.65c-0.68,0.1-1.43,0.12-2.26,0.05v0.47c1.69,1.04,3.43,1.59,5.21,1.66s3.41-0.29,4.87-1.09
			c1.47-0.79,2.64-1.93,3.53-3.4c0.88-1.47,1.29-3.22,1.22-5.26c-0.04-1.66-0.49-3.14-1.38-4.46
			C96.96,329.54,95.64,328.52,93.88,327.77z"/>
		<path class="st0" d="M134.38,330.39c-1.63-1.42-3.54-2.51-5.76-3.27c-2.21-0.76-4.63-1.14-7.26-1.14s-5.05,0.38-7.26,1.14
			s-4.12,1.85-5.73,3.27c-1.61,1.42-2.85,3.12-3.73,5.11c-0.88,1.99-1.32,4.23-1.32,6.72s0.44,4.73,1.32,6.72s2.13,3.69,3.73,5.11
			c1.61,1.42,3.52,2.51,5.73,3.27c2.21,0.76,4.63,1.14,7.26,1.14s5.05-0.38,7.26-1.14c2.21-0.76,4.13-1.85,5.76-3.27
			c1.63-1.42,2.88-3.12,3.76-5.11c0.88-1.99,1.32-4.23,1.32-6.72s-0.44-4.73-1.32-6.72S136.01,331.81,134.38,330.39z M131.4,349.82
			c-0.99,2.16-2.34,3.83-4.07,5.01c-1.73,1.18-3.72,1.76-5.97,1.76s-4.24-0.59-5.96-1.76c-1.73-1.18-3.09-2.84-4.07-5.01
			c-0.99-2.16-1.48-4.69-1.48-7.6c0-2.94,0.49-5.48,1.48-7.62c0.99-2.14,2.34-3.8,4.07-4.98c1.73-1.18,3.72-1.76,5.96-1.76
			s4.24,0.59,5.97,1.76c1.73,1.18,3.09,2.84,4.07,4.98c0.99,2.14,1.48,4.69,1.48,7.62C132.88,345.12,132.39,347.65,131.4,349.82z"/>
		<path class="st0" d="M172.3,355.73c-0.55-0.54-1.18-1.25-1.87-2.15c-0.62-0.79-1.23-1.61-1.82-2.44
			c-0.59-0.83-1.08-1.55-1.48-2.15s-0.65-0.98-0.75-1.11c-0.49-0.79-1.17-1.64-2.05-2.54s-1.75-1.49-2.62-1.76
			c1.66-0.21,3.04-0.74,4.15-1.58c1.11-0.85,1.94-1.88,2.49-3.11c0.55-1.23,0.83-2.48,0.83-3.76c0-1.52-0.29-2.82-0.86-3.89
			s-1.37-1.95-2.39-2.62c-1.02-0.67-2.2-1.17-3.53-1.48s-2.76-0.47-4.28-0.47h-5.4h-0.52h-5.08h-0.52h-3.42v0.52
			c0.03,0,0.14,0,0.31,0s0.29,0,0.36,0c0.76,0,1.41,0.26,1.95,0.78c0.48,0.46,0.72,1.05,0.8,1.73v25.06
			c-0.08,0.65-0.33,1.24-0.8,1.71c-0.54,0.54-1.2,0.8-2,0.8c-0.04,0-0.14,0-0.31,0s-0.28,0-0.31,0v0.52h3.42h0.52h5.13h0.47h3.53
			l-0.05-0.52c-0.03,0-0.22,0-0.57,0c-0.76,0-1.43-0.26-2-0.78s-0.87-1.18-0.91-1.97v-25.88c0.2,0,0.64-0.01,1.35-0.02
			c0.76-0.02,1.64-0.01,2.64,0.03c0.65,0.03,1.32,0.15,2,0.36c0.67,0.21,1.31,0.54,1.89,0.99c0.59,0.45,1.07,1.06,1.45,1.84
			c0.38,0.78,0.59,1.75,0.62,2.93c0.03,0.52,0.03,0.99-0.03,1.4c-0.05,0.42-0.13,0.76-0.23,1.04c-0.31,1.45-0.8,2.53-1.48,3.22
			c-0.67,0.69-1.42,1.14-2.23,1.35s-1.62,0.33-2.41,0.36c-0.55,0.04-0.99,0.04-1.32,0.03c-0.33-0.02-0.51-0.03-0.54-0.03v0.47
			c0.66,0.03,1.33,0.34,2.02,0.91s1.3,1.36,1.82,2.36c0.1,0.35,0.33,0.84,0.67,1.48c0.35,0.64,0.73,1.31,1.14,2.02
			s0.82,1.39,1.22,2.05c0.4,0.66,0.72,1.18,0.96,1.56c0.72,1.07,1.53,1.97,2.41,2.7s1.96,1.26,3.24,1.61
			c1.28,0.35,2.85,0.52,4.72,0.52h3.42v-0.52c-0.76,0-1.45-0.12-2.05-0.36C173.43,356.65,172.85,356.26,172.3,355.73z"/>
		<path class="st0" d="M200.05,326.48c-0.76,0.09-1.49,0.13-2.18,0.13h-18.36c-0.66,0-1.36-0.04-2.13-0.13
			c-0.76-0.08-1.44-0.2-2.05-0.34c-0.6-0.14-1.06-0.26-1.37-0.36v0.83v0.52v1.25v0.15v4.72h0.52v-0.62c0-1.21,0.36-2.19,1.06-2.93
			c0.71-0.74,1.7-1.13,2.98-1.17h7.11v25.99c-0.04,0.76-0.33,1.41-0.88,1.95s-1.23,0.8-2.02,0.8h-0.57v0.52h3.48h0.1h5.86h0.21h3.42
			v-0.52h-0.57c-0.76,0-1.43-0.27-2-0.8c-0.57-0.54-0.86-1.18-0.86-1.95v-25.99h7.11c1.28,0.03,2.27,0.42,2.98,1.17
			c0.71,0.74,1.05,1.72,1.01,2.93v0.62h0.57v-4.72v-0.15v-1.25v-0.52v-0.83c-0.24,0.1-0.68,0.22-1.32,0.36
			C201.51,326.28,200.81,326.39,200.05,326.48z"/>
		<path class="st0" d="M236.15,326.66h-2.85h-0.1h-3.16v0.47h0.78c0.66,0,1.22,0.22,1.68,0.65c0.47,0.43,0.7,0.96,0.7,1.58v17.48
			c0,3.04-0.82,5.44-2.46,7.18c-1.64,1.75-3.91,2.62-6.82,2.62c-2.73,0-4.88-0.92-6.46-2.77c-1.57-1.85-2.36-4.38-2.36-7.6v-16.91
			c0-0.62,0.24-1.15,0.73-1.58c0.48-0.43,1.04-0.65,1.66-0.65h0.78v-0.47h-3.16h-0.1h-5.86h-0.1h-3.11v0.47h0.73
			c0.66,0,1.21,0.22,1.66,0.65s0.69,0.96,0.73,1.58v17.32c0,3.67,1.21,6.54,3.63,8.64c2.42,2.09,5.96,3.14,10.63,3.14
			c4.12,0,7.3-1.06,9.57-3.16c2.26-2.11,3.4-5.01,3.4-8.71v-17.22c0.03-0.62,0.29-1.15,0.75-1.58c0.47-0.43,1.03-0.65,1.68-0.65
			h0.73v-0.47h-3.16h-0.14V326.66z"/>
		<path class="st0" d="M275.72,326.66h-5.24h-0.1h-3.73v0.52h0.88c0.79,0,1.46,0.25,2,0.75c0.53,0.5,0.82,1.13,0.85,1.89v18.45
			l-24.84-22.34h-0.52c0.35,2.28,0.52,4.31,0.52,6.07v22.61c0,0.76-0.28,1.39-0.83,1.89s-1.23,0.75-2.02,0.75h-0.83v0.52h3.68h0.15
			h5.24h0.1h3.74v-0.52h-0.88c-0.76,0-1.42-0.25-1.97-0.75s-0.85-1.13-0.88-1.89v-18.59l24.9,22.43h0.47
			c-0.17-1.11-0.31-2.13-0.39-3.09c-0.09-0.95-0.13-2-0.13-3.14v-22.41c0-0.76,0.28-1.39,0.86-1.89c0.57-0.5,1.24-0.75,2-0.75h0.88
			v-0.52h-3.73L275.72,326.66L275.72,326.66z"/>
		<path class="st0" d="M293.9,327.95c0.6-0.52,1.34-0.78,2.2-0.78c0.03,0,0.24,0,0.62,0l0.05-0.52h-3.84h-0.15h-5.76h-0.15h-3.84
			v0.52c0.42,0,0.64,0,0.68,0c0.86,0,1.61,0.26,2.23,0.78c0.62,0.52,0.93,1.18,0.93,1.97v24.58c0,0.76-0.31,1.41-0.93,1.95
			s-1.37,0.8-2.23,0.8h-0.68v0.52h3.84h0.15h5.76h0.15h3.84v-0.52c-0.03,0-0.26,0-0.67,0c-0.86,0-1.6-0.27-2.2-0.8
			c-0.61-0.54-0.93-1.18-0.96-1.95v-24.58C292.97,329.13,293.29,328.47,293.9,327.95z"/>
		<path class="st0" d="M325.61,326.48c-0.76,0.09-1.49,0.13-2.18,0.13h-18.36c-0.66,0-1.37-0.04-2.13-0.13
			c-0.76-0.08-1.44-0.2-2.05-0.34c-0.6-0.14-1.06-0.26-1.37-0.36v0.83v0.52v1.25v0.15v4.72h0.52v-0.62c0-1.21,0.36-2.19,1.06-2.93
			c0.71-0.74,1.7-1.13,2.98-1.17h7.11v25.99c-0.04,0.76-0.33,1.41-0.88,1.95c-0.55,0.54-1.23,0.8-2.02,0.8h-0.57v0.52h3.48h0.1h5.86
			h0.21h3.42v-0.52h-0.57c-0.76,0-1.43-0.27-2-0.8c-0.57-0.54-0.86-1.18-0.86-1.95v-25.99h7.11c1.28,0.03,2.27,0.42,2.98,1.17
			c0.71,0.74,1.05,1.72,1.01,2.93v0.62h0.57v-4.72v-0.15v-1.25v-0.52v-0.83c-0.24,0.1-0.68,0.22-1.32,0.36
			S326.37,326.39,325.61,326.48z"/>
		<path class="st0" d="M342.91,327.95c0.6-0.52,1.34-0.78,2.2-0.78c0.03,0,0.24,0,0.62,0l0.05-0.52h-3.84h-0.15h-5.76h-0.15h-3.84
			v0.52c0.41,0,0.64,0,0.68,0c0.86,0,1.61,0.26,2.23,0.78c0.62,0.52,0.93,1.18,0.93,1.97v24.58c0,0.76-0.31,1.41-0.93,1.95
			s-1.37,0.8-2.23,0.8h-0.68v0.52h3.84h0.15h5.76h0.15h3.84v-0.52c-0.03,0-0.26,0-0.67,0c-0.86,0-1.6-0.27-2.2-0.8
			c-0.61-0.54-0.93-1.18-0.96-1.95v-24.58C341.98,329.13,342.3,328.47,342.91,327.95z"/>
		<path class="st0" d="M373.07,352.59c-0.76,1.04-1.7,1.84-2.83,2.41c-1.12,0.57-2.48,0.86-4.07,0.86h-6.69v-12.6h6.84
			c1.07,0.03,1.9,0.38,2.49,1.04s0.88,1.47,0.88,2.44v0.47h0.52v-3.94v-0.1v-1.71v-0.1v-3.89h-0.52v0.47c0,0.97-0.29,1.78-0.88,2.44
			s-1.42,0.99-2.49,0.99h-6.84v-12.76h8.56c1.28,0,2.27,0.38,2.96,1.14s1.04,1.76,1.04,3.01v0.57h0.57v-4.72v-0.15v-1.24v-0.52
			v-0.83c-0.45,0.17-1.25,0.36-2.39,0.54c-1.14,0.19-2.21,0.29-3.21,0.29h-7.52h-0.1h-5.5h-0.47h-3.58v0.52h0.68
			c0.8,0,1.47,0.26,2.02,0.78s0.85,1.18,0.88,1.97v24.58c-0.03,0.76-0.33,1.41-0.88,1.95s-1.23,0.8-2.02,0.8h-0.68v0.52h3.58h0.47
			h5.5h0.1h5.03h8.51h0.1l2.28-8.82h-0.47C374.45,350.34,373.83,351.55,373.07,352.59z"/>
		<path class="st0" d="M396.36,342.37l-8.92-6.07c-0.62-0.38-1.16-0.78-1.61-1.19c-0.45-0.41-0.79-0.86-1.01-1.32
			c-0.23-0.47-0.34-0.99-0.34-1.58c0.03-1.25,0.6-2.27,1.71-3.09c1.11-0.81,2.49-1.22,4.15-1.22c2.07,0,3.65,0.45,4.72,1.35
			s1.61,2.11,1.61,3.63h0.47l0.39-5.55h0.03l0.05-0.88h-2.46c-0.35-0.05-0.72-0.11-1.12-0.15c-0.83-0.1-1.68-0.18-2.57-0.24
			c-0.88-0.05-1.72-0.08-2.52-0.08c-1.7,0-3.21,0.32-4.54,0.96c-1.33,0.64-2.39,1.54-3.19,2.7s-1.25,2.52-1.35,4.07
			c-0.14,1.49,0.1,2.9,0.73,4.23c0.62,1.33,1.68,2.43,3.16,3.29l8.35,5.81c1.14,0.66,1.96,1.35,2.46,2.07
			c0.5,0.73,0.75,1.54,0.75,2.44c0,1.42-0.54,2.6-1.61,3.55c-1.07,0.95-2.63,1.45-4.67,1.48c-1.73,0-3.22-0.35-4.49-1.06
			c-1.26-0.71-2.21-1.68-2.85-2.93c-0.64-1.24-0.91-2.64-0.8-4.2h-0.52c-0.31,0.66-0.58,1.45-0.8,2.39
			c-0.22,0.93-0.36,1.86-0.39,2.77c-0.03,0.92,0.05,1.67,0.26,2.26c0.59,0.55,1.35,1.03,2.28,1.43s2.02,0.7,3.27,0.91
			s2.52,0.31,3.84,0.31c2.18,0,4.1-0.37,5.76-1.11s2.96-1.8,3.92-3.16c0.95-1.37,1.44-2.95,1.48-4.75c0.07-1.56-0.23-2.95-0.88-4.17
			C398.45,344.02,397.53,343.06,396.36,342.37z"/>
	</g>
	<g>
		<path class="st0" d="M196.39,118.19v103.39c0,0-0.01,0.01-0.01,0c-14.89-9.16-24.82-25.6-24.82-44.37
			c0-8.52,2.05-16.57,5.68-23.67C183.63,141.76,190.01,129.97,196.39,118.19z"/>
		<path class="st0" d="M187.82,113.4l-43.33,75.06c-6.97-12.89-7.29-28.99,0.57-42.62c3.57-6.19,8.43-11.17,14.04-14.8
			C168.68,125.16,178.25,119.28,187.82,113.4z"/>
		<path class="st0" d="M182.86,104.55l-71.64,41.37l0,0c0.39-13.98,7.81-27.45,20.81-34.96c5.9-3.41,12.3-5.21,18.67-5.53
			C161.43,105.14,172.15,104.84,182.86,104.55z"/>
		<path class="st0" d="M183.18,96.33h-82.72c7.33-11.92,20.48-19.87,35.5-19.87c6.82,0,13.26,1.64,18.94,4.55
			C164.32,86.12,173.75,91.22,183.18,96.33z"/>
		<path class="st0" d="M187.43,88.6l-71.64-41.37c12.3-6.66,27.67-6.96,40.68,0.55c5.9,3.41,10.66,8.05,14.13,13.41
			C176.21,70.33,181.82,79.47,187.43,88.6z"/>
		<path class="st0" d="M196.19,83.47l-41.36-71.65l0,0c13.98,0.39,27.44,7.81,34.95,20.82c3.41,5.91,5.21,12.3,5.53,18.68
			C195.61,62.03,195.9,72.75,196.19,83.47z"/>
		<path class="st0" d="M204.53,118.19v103.39c0,0,0.01,0.01,0.01,0c14.89-9.16,24.82-25.6,24.82-44.37c0-8.52-2.05-16.57-5.68-23.67
			C217.29,141.76,210.91,129.97,204.53,118.19z"/>
		<path class="st0" d="M213.09,113.4l43.33,75.06c6.97-12.89,7.29-28.99-0.57-42.62c-3.57-6.19-8.43-11.17-14.04-14.8
			C232.23,125.16,222.66,119.28,213.09,113.4z"/>
		<path class="st0" d="M218.05,104.55l71.64,41.37l0,0c-0.39-13.98-7.81-27.45-20.81-34.96c-5.9-3.41-12.3-5.21-18.67-5.53
			C239.49,105.14,228.77,104.84,218.05,104.55z"/>
		<path class="st0" d="M217.74,96.33h82.72c-7.33-11.92-20.48-19.87-35.5-19.87c-6.82,0-13.26,1.64-18.94,4.55
			C236.59,86.12,227.17,91.22,217.74,96.33z"/>
		<path class="st0" d="M213.49,88.6l71.64-41.37c-12.3-6.66-27.67-6.96-40.68,0.55c-5.9,3.41-10.66,8.05-14.13,13.41
			C224.71,70.33,219.1,79.47,213.49,88.6z"/>
		<path class="st0" d="M204.73,83.47l41.36-71.65l0,0c-13.98,0.39-27.44,7.81-34.95,20.82c-3.41,5.91-5.21,12.3-5.53,18.68
			C205.31,62.03,205.02,72.75,204.73,83.47z"/>
		<path class="st0" d="M206.25,17.99c0,0.02,0,0.04,0,0.07c-0.01,3.45-1.08,6.8-2.81,9.78c-0.05,0.09-0.1,0.17-0.15,0.26
			c-1.07,1.84-2.02,3.76-2.84,5.74c-0.81-1.98-1.77-3.89-2.84-5.74c-0.04-0.08-0.09-0.16-0.14-0.24c-1.73-2.99-2.8-6.33-2.81-9.79
			c0-0.03,0-0.06,0-0.09c0-7.61,2.31-14.28,5.78-17.99c1.74,1.86,3.18,4.45,4.19,7.53S206.25,14.19,206.25,17.99z"/>
	</g>
</g>
</svg>
