<?xml version="1.0" encoding="utf-8"?>
<!-- Generator: Adobe Illustrator 27.8.1, SVG Export Plug-In . SVG Version: 6.00 Build 0)  -->
<svg version="1.1" id="Calque_1" xmlns="http://www.w3.org/2000/svg" xmlns:xlink="http://www.w3.org/1999/xlink" x="0px" y="0px"
	 viewBox="0 0 600 213.86" style="enable-background:new 0 0 600 213.86;" xml:space="preserve">
<style type="text/css">
	.st0{fill:#09693A;}
	.st1{fill:#228235;}
	.st2{fill:#3C9B36;}
	.st3{fill:#59B031;}
	.st4{fill:#77B832;}
	.st5{fill:#90BF21;}
	.st6{fill:none;}
	.st7{fill:#AFCB31;}
	.st8{fill:#3E4B3D;}
</style>
<g>
	<g>
		<path class="st0" d="M92.86,114.09v100.06c0,0,0,0.01-0.01,0c-14.41-8.86-24.02-24.78-24.02-42.94c0-8.25,1.99-16.04,5.5-22.91
			C80.51,136.9,86.69,125.49,92.86,114.09z"/>
		<path class="st1" d="M84.57,109.46L42.63,182.1c-6.75-12.47-7.06-28.06,0.55-41.25c3.46-5.99,8.16-10.81,13.59-14.32
			C66.04,120.84,75.31,115.15,84.57,109.46z"/>
		<path class="st2" d="M79.77,100.89l-69.35,40.04l0,0c0.37-13.53,7.56-26.57,20.15-33.83c5.72-3.3,11.91-5.04,18.08-5.35
			C59.02,101.46,69.4,101.17,79.77,100.89z"/>
		<path class="st3" d="M80.07,92.94H0C7.09,81.4,19.83,73.71,34.36,73.71c6.6,0,12.83,1.59,18.33,4.4
			C61.82,83.05,70.95,87.99,80.07,92.94z"/>
		<path class="st4" d="M84.19,85.46L14.84,45.42c11.91-6.44,26.79-6.74,39.37,0.53c5.72,3.3,10.32,7.79,13.67,12.98
			C73.33,67.77,78.76,76.61,84.19,85.46z"/>
		<path class="st5" d="M92.67,80.49L52.63,11.14l0,0c13.53,0.37,26.57,7.56,33.83,20.15c3.3,5.72,5.04,11.91,5.35,18.08
			C92.1,59.74,92.39,70.11,92.67,80.49z"/>
		<circle class="st6" cx="96.8" cy="97.3" r="17.3"/>
		<path class="st0" d="M100.74,114.09v100.06c0,0,0,0.01,0.01,0c14.41-8.86,24.02-24.78,24.02-42.94c0-8.25-1.99-16.04-5.5-22.91
			C113.09,136.9,106.92,125.49,100.74,114.09z"/>
		<path class="st1" d="M109.03,109.46l41.94,72.64c6.75-12.47,7.06-28.06-0.55-41.25c-3.46-5.99-8.16-10.81-13.59-14.32
			C127.56,120.84,118.3,115.15,109.03,109.46z"/>
		<path class="st2" d="M113.83,100.89l69.35,40.04l0,0c-0.37-13.53-7.56-26.57-20.15-33.83c-5.72-3.3-11.91-5.04-18.08-5.35
			C134.58,101.46,124.21,101.17,113.83,100.89z"/>
		<path class="st3" d="M113.53,92.94h80.07c-7.09-11.53-19.83-19.23-34.36-19.23c-6.6,0-12.83,1.59-18.33,4.4
			C131.78,83.05,122.66,87.99,113.53,92.94z"/>
		<path class="st4" d="M109.41,85.46l69.35-40.04c-11.91-6.44-26.79-6.74-39.37,0.53c-5.72,3.3-10.32,7.79-13.67,12.98
			C120.28,67.77,114.85,76.61,109.41,85.46z"/>
		<path class="st5" d="M100.93,80.49l40.04-69.35l0,0c-13.53,0.37-26.57,7.56-33.83,20.15c-3.3,5.72-5.04,11.91-5.35,18.08
			C101.5,59.74,101.22,70.11,100.93,80.49z"/>
		<path class="st7" d="M102.41,17.12c0,0.02,0,0.04,0,0.06c-0.01,3.34-1.04,6.58-2.72,9.47c-0.05,0.08-0.1,0.17-0.15,0.25
			c-1.04,1.78-1.96,3.64-2.75,5.55c-0.79-1.91-1.71-3.77-2.75-5.55c-0.04-0.08-0.09-0.15-0.13-0.23c-1.67-2.89-2.71-6.13-2.72-9.47
			c0-0.03,0-0.06,0-0.09c0-7.36,2.23-13.82,5.59-17.41c1.68,1.8,3.08,4.31,4.06,7.29S102.41,13.44,102.41,17.12z"/>
	</g>
	<g>
		<path class="st8" d="M282.28,63.41l-7.87,1.82l1.28,8.61v6.66c0,3.57-1.68,5.32-4.98,5.32h-27.73c-5.32,0-8.01-3.3-8.01-9.82
			c0-2.49,1.08-5.25,3.16-8.21h-5.99c-1.75,3.03-2.62,6.19-2.62,9.56c0,4.37,1.14,7.87,3.43,10.56c2.29,2.62,5.38,3.97,9.22,3.97
			h30.21c6.12,0,9.89-3.7,9.89-9.82L282.28,63.41L282.28,63.41z"/>
		<path class="st8" d="M261.49,102.71c0-2.36-1.95-4.1-4.17-4.1c-2.15,0-4.1,1.82-4.1,4.04c0,2.42,1.95,4.11,4.1,4.11
			C259.67,106.75,261.49,104.8,261.49,102.71z"/>
		<path class="st8" d="M325.27,91.87h3.16h1.89h20.99h1.89h5.92c3.03,0,5.38-0.87,7.2-2.56c0.47-0.47,0.94-0.94,1.28-1.41
			c2.62,2.62,5.65,3.97,9.08,3.97c3.63,0,6.33-1.28,8.14-3.84c2.49,2.56,5.45,3.84,9.02,3.84c2.56,0,4.71-0.67,6.39-2.02
			c1.82,1.35,4.04,2.02,6.73,2.02h1.74h1.82h10.76c6.19,0,10.03-3.77,10.03-10.03V48.13l-7.87,1.88l1.14,8.88v21.4
			c0,3.7-1.61,5.52-4.91,5.52h-9.15h-1.82h-0.2c-3.23,0-4.84-1.75-4.84-5.25V63.41l-8.01,1.82l1.28,8.75v6.59
			c0,3.57-1.61,5.32-4.78,5.32c-2.22,0-4.11-0.81-5.79-2.49V66.03l-6.66,1.48v13.05c0,3.57-1.61,5.32-4.78,5.32
			c-2.22,0-4.17-0.74-5.85-2.29v-0.81V66.03l-6.59,1.48l-0.13,12.99c0,3.57-1.62,5.32-4.84,5.32h-4.3h-1.89h-20.99h-1.89h-1.48
			c-3.3,0-4.91-1.75-4.91-5.32V63.41l-8.01,1.82l1.35,8.75v6.53c0,3.57-1.61,5.32-4.91,5.32h-4.37h-1.89h-1.75
			c-3.23,0-4.84-1.82-4.84-5.52V48.54l-7.87,1.82l1.14,8.61v22.88c0,6.26,3.84,10.03,9.96,10.03h3.36h1.89h6.12
			c2.56,0,4.71-0.67,6.46-2.02C320.36,91.2,322.58,91.87,325.27,91.87z"/>
		<path class="st8" d="M314.44,102.64c0,2.42,1.75,4.11,4.1,4.11c2.22,0,4.04-1.95,4.04-4.04c0-2.36-1.82-4.1-4.04-4.1
			C316.19,98.6,314.44,100.42,314.44,102.64z"/>
		<path class="st8" d="M382.26,46.25c2.36,0,4.11-1.88,4.11-4.04c0-2.36-1.75-4.17-4.11-4.17c-2.22,0-4.04,1.95-4.04,4.17
			C378.23,44.43,380.04,46.25,382.26,46.25z"/>
		<path class="st8" d="M376.95,56.68c2.36,0,4.11-1.82,4.11-4.04c0-2.36-1.95-4.11-4.11-4.11c-2.22,0-4.17,1.82-4.17,4.04
			C372.78,55,374.73,56.68,376.95,56.68z"/>
		<path class="st8" d="M383.54,52.58c0,2.42,1.95,4.11,4.11,4.11c2.36,0,4.17-1.82,4.17-4.04c0-2.36-1.95-4.11-4.17-4.11
			C385.49,48.54,383.54,50.36,383.54,52.58z"/>
		<polygon class="st8" points="439.79,91.87 446.45,91.87 446.45,57.35 447.19,48.4 438.78,49.08 439.79,57.42 		"/>
		<path class="st8" d="M482.85,108.03c6.39,0,11.37-1.88,14.94-5.72c2.69-2.76,4.37-6.26,5.05-10.43h42.8V75.99
			c0-3.84-1.55-6.8-4.58-8.95c-3.03-2.22-6.93-3.3-11.71-3.3c-8.82,0-16.89,5.85-24.36,17.63l-1.75,2.22V64.62l-6.73,1.61v19.78
			c0,5.32-1.28,9.62-3.84,12.92c-2.49,3.03-5.45,4.58-8.95,4.58c-8.41,0-13.32-6.86-13.32-18.17V72.56h-6.59v13.06
			c0,6.86,1.48,12.25,4.51,16.08C471.62,105.94,476.46,108.03,482.85,108.03z M515.22,76.26c4.37-4.58,8.61-6.86,12.65-6.86
			c7.34,0,11.04,2.56,11.04,7.67v8.75h-30.42C509.5,82.99,511.79,79.83,515.22,76.26z"/>
		<path class="st8" d="M597.17,64.22c-2.09-2.09-5.05-3.1-8.75-3.1c-2.76,0-5.11,0.74-7.13,2.15c-2.76,1.95-4.17,4.84-4.17,8.68
			c0,7.07,3.77,10.63,11.3,10.63c1.88,0,3.36-0.27,4.44-0.81c-0.47,2.69-2.89,4.04-7.4,4.04h-12.98h-1.89h-1.88
			c-3.3,0-4.91-1.88-4.91-5.58V63.41l-8.01,1.82l1.35,9.02l0.07,16.89c0,6.73-3.1,11.04-9.35,12.99l1.48,2.62
			c8.82-2.42,13.59-7.54,14.4-15.34c1.01,0.34,2.15,0.47,3.37,0.47h3.5h1.89h12.45c10.3,0,15.07-4.98,15.07-17.03v-3.16
			C600,68.59,599.06,66.1,597.17,64.22z M593.34,77.27c-1.41,0.67-3.16,1.01-5.18,1.01c-2.89,0-4.37-1.95-4.37-5.85
			c0-4.78,1.62-7.2,4.84-7.2c3.16,0,4.78,2.22,4.78,6.59C593.41,73.91,593.41,75.72,593.34,77.27z"/>
		<path class="st8" d="M588.36,56.68c2.15,0,4.04-1.82,4.04-4.04c0-2.36-1.88-4.11-4.04-4.11c-2.35,0-4.17,1.82-4.17,4.04
			C584.19,55,586,56.68,588.36,56.68z"/>
		<path class="st8" d="M255.33,135.71c0-7.2,2.76-10.77,8.34-10.77h5.92l1.08-4.51h-6.53c-4.71,0-8.55,1.55-11.44,4.58
			c-2.89,3.03-4.37,7-4.37,11.91c0,4.04,1.21,7.2,3.63,9.56c2.22,2.22,5.05,3.3,8.61,3.3h6.53c0,2.02-0.67,3.97-2.02,5.92
			c-1.68,2.36-3.77,3.7-6.33,4.04h-8.01c-8.41,0-13.32-6.53-13.32-17.03v-12.05h-6.59v12.18c0,6.53,1.48,11.57,4.44,15.28
			c3.3,3.97,8.14,5.99,14.53,5.99h10.5c3.97-0.61,7.2-2.36,9.76-5.32c2.62-2.96,3.9-6.39,3.9-10.23v-4.44h-12.38
			C257.41,144.12,255.33,141.3,255.33,135.71z"/>
		<path class="st8" d="M257.82,169.9c-2.22,0-4.04,1.75-4.04,4.1c0,2.36,1.82,4.04,4.04,4.04c2.36,0,4.11-1.82,4.11-4.04
			C261.92,171.65,260.17,169.9,257.82,169.9z"/>
		<path class="st8" d="M247.05,169.9c-2.15,0-4.04,1.75-4.04,4.1c0,2.36,1.88,4.04,4.04,4.04c2.35,0,4.17-1.82,4.17-4.04
			C251.22,171.65,249.41,169.9,247.05,169.9z"/>
		<path class="st8" d="M306.13,135.44c-0.07-4.37-1.35-7.94-3.84-10.77c-2.49-2.89-5.79-4.31-9.89-4.31
			c-1.14,0.2-1.88,0.27-2.09,0.27c0.2,1.82,0.34,3.1,0.34,3.77c0.74-0.34,1.48-0.47,2.09-0.47c1.95,0,3.5,0.87,4.71,2.56
			c1.28,1.95,1.95,4.51,1.95,7.81v7.07l-0.2,1.41h-17.03l-1.75,6.06h26.72l-1.01-6.12L306.13,135.44L306.13,135.44z"/>
		<path class="st8" d="M576.08,115.86v21.4c0,3.7-1.61,5.52-4.91,5.52h-9.15h-1.82H560c-3.23,0-4.84-1.75-4.84-5.25v-17.16
			l-8.01,1.82l1.28,8.75v6.59c0,3.57-1.61,5.32-4.78,5.32c-2.22,0-4.11-0.81-5.79-2.49V123l-6.66,1.48v13.05
			c0,3.57-1.61,5.32-4.78,5.32c-2.22,0-4.17-0.74-5.85-2.29v-0.81v-16.76l-6.59,1.48l-0.13,12.99c0,3.57-1.62,5.32-4.84,5.32h-4.3
			h-1.89h-20.99h-1.89h-18.97h-3.91H446.7c-0.87,0-1.82-0.07-2.69-0.27c6.86-6.39,10.63-9.89,11.31-10.5c0-3.16-1.62-6.06-4.91-8.55
			c-3.5-2.62-7.6-3.9-12.31-3.9c-4.78,0-8.88,1.28-12.31,3.84c-3.37,2.56-5.05,5.45-5.05,8.61c5.92,5.65,9.62,9.15,11.17,10.5
			c-0.87,0.2-1.68,0.27-2.56,0.27h-13.66h-1.95h-20.92h-1.89h-20.99h-1.89h-21.06h-1.82h-5.99v-23.22h-9.82
			c-4.71,0-8.55,1.55-11.44,4.58s-4.31,6.93-4.31,11.84c0,4.04,1.28,7.2,3.77,9.55c2.22,2.22,5.18,3.3,8.82,3.3h6.39
			c-0.34,5.92-3.36,10.03-9.15,12.25l1.41,2.62c8.28-2.15,13.05-7.13,14.2-14.87h6.12h1.82h21.06h1.89h20.99h1.89h20.92h1.95h14.67
			c0.07-1.01,1.01-1.48,2.96-1.48c2.62,0.07,4.17,0,4.64-0.27c2.62,1.14,4.98,1.75,7,1.75h12.11h3.91h18.97h1.89h20.99h1.89h5.92
			c3.03,0,5.38-0.87,7.2-2.56c0.47-0.47,0.94-0.94,1.28-1.41c2.62,2.62,5.65,3.97,9.08,3.97c3.63,0,6.33-1.28,8.14-3.84
			c2.49,2.56,5.45,3.84,9.02,3.84c2.56,0,4.71-0.67,6.39-2.02c1.82,1.35,4.04,2.02,6.73,2.02h1.74h1.82h10.76
			c6.19,0,10.03-3.77,10.03-10.03v-33.71l-7.87,1.88L576.08,115.86z M332.37,142.78h-5.65c-4.17,0-6.26-2.69-6.26-8.01
			c0-7,3.16-11.31,8.48-11.31h3.43V142.78z M428.05,130.8c0.2-1.28,1.14-2.42,2.76-3.57c1.95-1.21,4.37-1.82,7.27-1.82
			c2.89,0,5.38,0.6,7.33,1.82c1.55,1.01,2.42,2.22,2.62,3.57l-9.96,9.49C433.57,136.11,430.27,132.95,428.05,130.8z"/>
		<polygon class="st8" points="591.28,114.38 591.28,148.83 597.95,148.83 597.95,114.31 598.69,105.36 590.27,106.04 		"/>
	</g>
</g>
</svg>
