<?xml version="1.0" encoding="utf-8"?>
<!-- Generator: Adobe Illustrator 27.8.1, SVG Export Plug-In . SVG Version: 6.00 Build 0)  -->
<svg version="1.1" id="Calque_1" xmlns="http://www.w3.org/2000/svg" xmlns:xlink="http://www.w3.org/1999/xlink" x="0px" y="0px"
	 viewBox="0 0 400 405.17" style="enable-background:new 0 0 400 405.17;" xml:space="preserve">
<style type="text/css">
	.st0{fill:#09693A;}
	.st1{fill:#228235;}
	.st2{fill:#3C9B36;}
	.st3{fill:#59B031;}
	.st4{fill:#77B832;}
	.st5{fill:#90BF21;}
	.st6{fill:none;}
	.st7{fill:#AFCB31;}
	.st8{fill:#3E4B3D;}
</style>
<g>
	<g>
		<path class="st0" d="M196.22,123.78v108.28c0,0-0.01,0.01-0.01,0.01c-15.59-9.59-25.99-26.81-25.99-46.47
			c0-8.93,2.15-17.35,5.95-24.79C182.86,148.46,189.54,136.12,196.22,123.78z"/>
		<path class="st1" d="M187.25,118.77l-45.38,78.61c-7.3-13.5-7.64-30.36,0.6-44.64c3.74-6.48,8.83-11.7,14.71-15.5
			C167.2,131.08,177.23,124.92,187.25,118.77z"/>
		<path class="st2" d="M182.05,109.5l-75.02,43.33c0,0,0,0,0,0c0.4-14.65,8.18-28.75,21.8-36.61c6.18-3.57,12.88-5.45,19.56-5.79
			C159.61,110.11,170.83,109.8,182.05,109.5z"/>
		<path class="st3" d="M182.38,100.89l-86.63,0c7.67-12.48,21.45-20.81,37.18-20.81c7.14,0,13.88,1.72,19.83,4.76
			C162.64,90.19,172.51,95.54,182.38,100.89z"/>
		<path class="st4" d="M186.84,92.8l-75.03-43.33c12.88-6.97,28.98-7.29,42.6,0.57c6.18,3.57,11.16,8.43,14.79,14.04
			C175.08,73.66,180.96,83.23,186.84,92.8z"/>
		<path class="st5" d="M196.01,87.42L152.7,12.38c0,0,0,0,0,0c14.64,0.41,28.74,8.18,36.6,21.8c3.57,6.19,5.45,12.89,5.79,19.56
			C195.4,64.96,195.71,76.19,196.01,87.42z"/>
		<ellipse class="st6" cx="200.48" cy="105.61" rx="18.72" ry="18.72"/>
		<path class="st0" d="M204.74,123.78v108.28c0,0,0.01,0.01,0.01,0.01c15.59-9.59,25.99-26.81,25.99-46.47
			c0-8.93-2.15-17.35-5.95-24.79C218.11,148.46,211.42,136.12,204.74,123.78z"/>
		<path class="st1" d="M213.71,118.77l45.38,78.61c7.3-13.5,7.64-30.36-0.6-44.64c-3.74-6.48-8.83-11.7-14.71-15.5
			C233.76,131.08,223.74,124.92,213.71,118.77z"/>
		<path class="st2" d="M218.91,109.5l75.02,43.33c0,0,0,0,0,0c-0.4-14.65-8.18-28.75-21.8-36.61c-6.18-3.57-12.88-5.45-19.56-5.79
			C241.36,110.11,230.13,109.8,218.91,109.5z"/>
		<path class="st3" d="M218.58,100.89l86.63,0c-7.67-12.48-21.45-20.81-37.18-20.81c-7.14,0-13.88,1.72-19.83,4.76
			C238.33,90.19,228.45,95.54,218.58,100.89z"/>
		<path class="st4" d="M214.13,92.8l75.03-43.33c-12.88-6.97-28.98-7.29-42.6,0.57c-6.18,3.57-11.16,8.43-14.79,14.04
			C225.88,73.66,220,83.23,214.13,92.8z"/>
		<path class="st5" d="M204.95,87.42l43.32-75.04c0,0,0,0,0,0c-14.64,0.41-28.74,8.18-36.6,21.8c-3.57,6.19-5.45,12.89-5.79,19.56
			C205.56,64.96,205.26,76.19,204.95,87.42z"/>
		<path class="st7" d="M206.54,18.84c0,0.02,0,0.05,0,0.07c-0.01,3.61-1.13,7.12-2.94,10.25c-0.05,0.09-0.11,0.18-0.16,0.28
			c-1.12,1.93-2.12,3.94-2.97,6.01c-0.85-2.07-1.85-4.08-2.97-6.01c-0.05-0.08-0.09-0.17-0.14-0.25c-1.81-3.13-2.93-6.63-2.94-10.25
			c0-0.03,0-0.06,0-0.09c0-7.97,2.42-14.95,6.05-18.84c1.82,1.94,3.33,4.66,4.39,7.89S206.54,14.86,206.54,18.84z"/>
	</g>
	<g>
		<path class="st8" d="M56.96,281.41l-8.5,1.96l1.38,9.3v7.19c0,3.85-1.82,5.74-5.38,5.74H14.53c-5.74,0-8.65-3.56-8.65-10.61
			c0-2.69,1.16-5.67,3.41-8.86H2.83C0.94,289.4,0,292.81,0,296.45c0,4.72,1.24,8.5,3.71,11.41c2.47,2.83,5.81,4.29,9.95,4.29h32.62
			c6.61,0,10.68-4,10.68-10.61V281.41z"/>
		<path class="st8" d="M34.51,323.83c0-2.54-2.11-4.43-4.5-4.43c-2.32,0-4.43,1.96-4.43,4.36c0,2.62,2.11,4.43,4.43,4.43
			C32.55,328.19,34.51,326.09,34.51,323.83z"/>
		<path class="st8" d="M103.38,312.14h3.41h2.03h22.67h2.03h6.39c3.27,0,5.81-0.94,7.77-2.76c0.51-0.51,1.02-1.02,1.38-1.52
			c2.83,2.83,6.1,4.29,9.81,4.29c3.92,0,6.83-1.38,8.79-4.14c2.69,2.76,5.88,4.14,9.73,4.14c2.76,0,5.09-0.73,6.9-2.18
			c1.96,1.45,4.36,2.18,7.26,2.18h1.89h1.96h11.62c6.68,0,10.83-4.07,10.83-10.83v-36.4l-8.5,2.03l1.24,9.59v23.1
			c0,4-1.74,5.96-5.3,5.96h-9.88h-1.96h-0.22c-3.49,0-5.23-1.89-5.23-5.67v-18.53l-8.65,1.96l1.38,9.44v7.12
			c0,3.85-1.74,5.74-5.16,5.74c-2.4,0-4.43-0.87-6.25-2.69v-18.74l-7.19,1.6v14.09c0,3.85-1.74,5.74-5.16,5.74
			c-2.4,0-4.5-0.8-6.32-2.47v-0.87v-18.09l-7.12,1.6l-0.14,14.02c0,3.85-1.74,5.74-5.23,5.74h-4.65h-2.03h-22.67h-2.03h-1.6
			c-3.56,0-5.3-1.89-5.3-5.74v-18.45l-8.65,1.96l1.45,9.44v7.05c0,3.85-1.74,5.74-5.3,5.74h-4.72h-2.03h-1.89
			c-3.49,0-5.23-1.96-5.23-5.96v-34.29l-8.5,1.96l1.24,9.3v24.7c0,6.76,4.14,10.83,10.75,10.83h3.63h2.03h6.61
			c2.76,0,5.09-0.73,6.97-2.18C98.08,311.41,100.47,312.14,103.38,312.14z"/>
		<path class="st8" d="M91.68,323.76c0,2.62,1.89,4.43,4.43,4.43c2.4,0,4.36-2.11,4.36-4.36c0-2.54-1.96-4.43-4.36-4.43
			C93.57,319.4,91.68,321.37,91.68,323.76z"/>
		<path class="st8" d="M159.17,274.14c2.54,0,4.43-1.96,4.43-4.36c0-2.54-2.11-4.43-4.43-4.43c-2.4,0-4.5,1.96-4.5,4.36
			C154.67,272.33,156.78,274.14,159.17,274.14z"/>
		<path class="st8" d="M164.91,262.88c2.54,0,4.43-2.03,4.43-4.36c0-2.54-1.89-4.5-4.43-4.5c-2.4,0-4.36,2.11-4.36,4.5
			C160.55,260.92,162.51,262.88,164.91,262.88z"/>
		<path class="st8" d="M166.29,269.71c0,2.62,2.11,4.43,4.43,4.43c2.54,0,4.5-1.96,4.5-4.36c0-2.54-2.11-4.43-4.5-4.43
			C168.4,265.35,166.29,267.32,166.29,269.71z"/>
		<polygon class="st8" points="227.02,312.14 234.22,312.14 234.22,274.87 235.02,265.21 225.94,265.93 227.02,274.94 		"/>
		<path class="st8" d="M273.52,329.57c6.9,0,12.28-2.03,16.13-6.18c2.91-2.98,4.72-6.76,5.45-11.26h46.2v-17.15
			c0-4.14-1.67-7.34-4.94-9.66c-3.27-2.4-7.48-3.56-12.64-3.56c-9.52,0-18.23,6.32-26.3,19.03l-1.89,2.4v-20.49l-7.26,1.74v21.36
			c0,5.74-1.38,10.39-4.14,13.95c-2.69,3.27-5.88,4.94-9.66,4.94c-9.08,0-14.38-7.41-14.38-19.61v-13.8h-7.12v14.09
			c0,7.41,1.6,13.22,4.87,17.36C261.39,327.32,266.62,329.57,273.52,329.57z M308.46,295.28c4.72-4.94,9.3-7.41,13.66-7.41
			c7.92,0,11.91,2.76,11.91,8.28v9.44H301.2C302.29,302.55,304.76,299.14,308.46,295.28z"/>
		<path class="st8" d="M387.43,274.14c2.32,0,4.36-1.96,4.36-4.36c0-2.54-2.03-4.43-4.36-4.43c-2.54,0-4.5,1.96-4.5,4.36
			C382.93,272.33,384.89,274.14,387.43,274.14z"/>
		<path class="st8" d="M396.95,282.28c-2.25-2.25-5.45-3.34-9.44-3.34c-2.98,0-5.52,0.8-7.7,2.33c-2.98,2.11-4.5,5.23-4.5,9.37
			c0,7.63,4.07,11.48,12.2,11.48c2.03,0,3.63-0.29,4.79-0.87c-0.51,2.91-3.12,4.36-7.99,4.36h-14.02h-2.03h-2.03
			c-3.56,0-5.3-2.03-5.3-6.03v-18.16l-8.65,1.96l1.45,9.73l0.07,18.23c0,7.26-3.34,11.91-10.1,14.02l1.6,2.83
			c9.52-2.62,14.68-8.14,15.55-16.56c1.09,0.36,2.32,0.51,3.63,0.51h3.78h2.03h13.44c11.11,0,16.27-5.38,16.27-18.38v-3.41
			C400,287,398.98,284.32,396.95,282.28z M392.81,296.37c-1.52,0.73-3.41,1.09-5.59,1.09c-3.12,0-4.72-2.11-4.72-6.32
			c0-5.16,1.74-7.77,5.23-7.77c3.41,0,5.16,2.4,5.16,7.12C392.88,292.74,392.88,294.7,392.81,296.37z"/>
		<path class="st8" d="M27.86,359.47c0-7.77,2.98-11.62,9.01-11.62h6.39l1.16-4.87h-7.05c-5.09,0-9.23,1.67-12.35,4.94
			c-3.12,3.27-4.72,7.56-4.72,12.86c0,4.36,1.31,7.77,3.92,10.32c2.4,2.4,5.45,3.56,9.3,3.56h7.05c0,2.18-0.73,4.29-2.18,6.39
			c-1.82,2.54-4.07,3.99-6.83,4.36h-8.64c-9.08,0-14.38-7.05-14.38-18.38v-13H1.42v13.15c0,7.05,1.6,12.5,4.79,16.49
			c3.56,4.29,8.79,6.47,15.69,6.47h11.33c4.29-0.65,7.77-2.54,10.53-5.74c2.83-3.2,4.21-6.9,4.21-11.04v-4.79H34.62
			C30.11,368.55,27.86,365.5,27.86,359.47z"/>
		<path class="st8" d="M18.92,396.37c-2.32,0-4.36,1.89-4.36,4.43s2.03,4.36,4.36,4.36c2.54,0,4.5-1.96,4.5-4.36
			C23.43,398.26,21.47,396.37,18.92,396.37z"/>
		<path class="st8" d="M30.55,396.37c-2.4,0-4.36,1.89-4.36,4.43s1.96,4.36,4.36,4.36c2.54,0,4.43-1.96,4.43-4.36
			C34.98,398.26,33.09,396.37,30.55,396.37z"/>
		<path class="st8" d="M82.71,359.18c-0.07-4.72-1.45-8.57-4.14-11.62c-2.69-3.12-6.25-4.65-10.68-4.65
			c-1.24,0.22-2.03,0.29-2.25,0.29c0.22,1.96,0.36,3.34,0.36,4.07c0.8-0.36,1.6-0.51,2.25-0.51c2.11,0,3.78,0.94,5.09,2.76
			c1.38,2.11,2.11,4.87,2.11,8.43v7.63l-0.22,1.52H56.85l-1.89,6.54H83.8l-1.09-6.61V359.18z"/>
		<path class="st8" d="M374.17,338.04v23.1c0,4-1.74,5.96-5.3,5.96h-9.88h-1.96h-0.22c-3.49,0-5.23-1.89-5.23-5.67v-18.53
			l-8.65,1.96l1.38,9.44v7.12c0,3.85-1.74,5.74-5.16,5.74c-2.4,0-4.43-0.87-6.25-2.69v-18.74l-7.19,1.6v14.09
			c0,3.85-1.74,5.74-5.16,5.74c-2.4,0-4.5-0.8-6.32-2.47v-0.87v-18.09l-7.12,1.6l-0.14,14.02c0,3.85-1.74,5.74-5.23,5.74h-4.65
			h-2.03h-22.67h-2.03h-20.49h-4.21h-11.19c-0.94,0-1.96-0.07-2.91-0.29c7.41-6.9,11.48-10.68,12.2-11.33c0-3.41-1.74-6.54-5.3-9.23
			c-3.78-2.83-8.21-4.21-13.29-4.21c-5.16,0-9.59,1.38-13.3,4.14c-3.63,2.76-5.45,5.88-5.45,9.3c6.39,6.1,10.39,9.88,12.06,11.33
			c-0.94,0.22-1.82,0.29-2.76,0.29h-14.75h-2.11h-22.59h-2.03h-22.67h-2.03h-22.74h-1.96h-6.47v-25.06h-10.61
			c-5.09,0-9.23,1.67-12.35,4.94c-3.12,3.27-4.65,7.48-4.65,12.79c0,4.36,1.38,7.77,4.07,10.32c2.4,2.4,5.6,3.56,9.52,3.56h6.9
			c-0.36,6.39-3.63,10.82-9.88,13.22l1.52,2.83c8.94-2.32,14.09-7.7,15.33-16.05h6.61h1.96h22.74h2.03h22.67h2.03h22.59h2.11h15.84
			c0.07-1.09,1.09-1.6,3.2-1.6c2.83,0.07,4.5,0,5.01-0.29c2.83,1.24,5.37,1.89,7.55,1.89h13.08h4.21h20.49h2.03h22.67h2.03h6.39
			c3.27,0,5.81-0.94,7.77-2.76c0.51-0.51,1.02-1.02,1.38-1.52c2.83,2.83,6.1,4.29,9.81,4.29c3.92,0,6.83-1.38,8.79-4.14
			c2.69,2.76,5.88,4.14,9.73,4.14c2.76,0,5.09-0.73,6.9-2.18c1.96,1.45,4.36,2.18,7.26,2.18h1.89h1.96h11.62
			c6.68,0,10.83-4.07,10.83-10.83v-36.4l-8.5,2.03L374.17,338.04z M111.04,367.1h-6.1c-4.5,0-6.76-2.91-6.76-8.64
			c0-7.56,3.41-12.2,9.15-12.2h3.71V367.1z M214.35,354.17c0.22-1.38,1.24-2.62,2.98-3.85c2.11-1.31,4.72-1.96,7.85-1.96
			c3.12,0,5.81,0.65,7.92,1.96c1.67,1.09,2.62,2.4,2.83,3.85l-10.75,10.24C220.3,359.91,216.75,356.49,214.35,354.17z"/>
		<polygon class="st8" points="390.59,336.44 390.59,373.64 397.78,373.64 397.78,336.37 398.58,326.71 389.5,327.43 		"/>
	</g>
</g>
</svg>
